<?xml version="1.0" encoding="utf-8"?>
<!-- Generator: Adobe Illustrator 27.5.0, SVG Export Plug-In . SVG Version: 6.00 Build 0)  -->
<svg version="1.1" xmlns="http://www.w3.org/2000/svg" xmlns:xlink="http://www.w3.org/1999/xlink" x="0px" y="0px"
	 viewBox="0 0 750 500" style="enable-background:new 0 0 750 500;" xml:space="preserve">
<g id="BACKGROUND">
</g>
<g id="OBJECTS">
	<ellipse style="opacity:0.3;fill:#48458D;" cx="577.647" cy="471.576" rx="69.496" ry="16.288"/>
	<ellipse style="opacity:0.3;fill:#48458D;" cx="451.334" cy="471.576" rx="69.496" ry="16.288"/>
	<ellipse style="opacity:0.3;fill:#48458D;" cx="316.064" cy="471.576" rx="69.496" ry="16.288"/>
	<ellipse style="opacity:0.3;fill:#48458D;" cx="194.405" cy="471.576" rx="69.496" ry="16.288"/>
	<g>
		<g>
			<path style="fill:#003B69;" d="M254.989,245.747c-1.809,1.069-3.495,1.799-5.006,2.292c-5.304,1.706-8.594,0.421-8.594,0.421
				s-0.596,0.483-1.665,1.223c-3.403,2.385-11.565,7.453-20.087,8.152c-11.184,0.905-35.054-4.533-35.054-4.533
				s-31.723,19.038-43.206-3.022c-2.848-5.469-3.896-10.999-3.845-16.437c0.103-16.509,10.187-32.258,10.187-43.391
				c0-0.216,0-0.421-0.01-0.648c-0.092-11.143-2.683-30.13-2.786-44.409c0-0.473-0.01-0.936-0.01-1.388
				c0-0.411,0.01-0.822,0.01-1.223c0.062-3.886,0.36-7.34,0.987-10.043c0.041-0.175,0.082-0.35,0.123-0.524
				c2.992-12.593,6.219-17.003,6.219-17.003s3.752-18.329,14.33-28.002c8.542-7.802,30.027-11.205,46.886-6.487
				c1.891,0.524,3.721,1.151,5.469,1.892c0.216,0.092,0.442,0.185,0.658,0.288c1.737,0.75,3.382,1.624,4.914,2.611
				c16.931,10.876,18.699,26.974,18.699,46.321c0,19.336,11.174,16.921,11.482,37.161c0.298,20.241-11.791,28.403-11.791,28.403
				c-2.416,7.556,3.022,18.432,10.28,25.679C260.427,230.337,263.151,240.915,254.989,245.747z"/>
			<path style="opacity:0.36;fill:#00092B;" d="M240.184,143.669c0.681,16.66-6.858,22.827-13.368,25.74
				c-6.51,2.913-8.909,3.941-9.252,10.622c-0.343,6.682,2.399,13.535-1.371,15.42c-3.769,1.885-27.242-1.199-34.266-2.57
				c-7.025-1.371-13.364-2.913-12.507-8.909c0.857-5.996,1.542-11.65,0.514-20.388c-1.028-8.738,0.343-10.794-4.283-13.535
				c-4.626-2.741-9.423-9.08-8.738-13.535c0.685-4.455,5.825-5.996,12.336,0.343c6.511,6.339,20.731,9.252,31.525,5.825
				c10.794-3.427,38.721,0.857,38.721,0.857"/>
			<path style="opacity:0.25;fill:#659CC7;" d="M254.989,245.747c-1.809,1.069-3.495,1.799-5.006,2.292
				c0.041-0.298,0.134-0.586,0.308-0.843c2.395-3.773,6.332-13.199-1.028-21.074c-7.371-7.885-27.242-17.825-11.997-30.5
				c15.245-12.675,14.392-30.665,8.399-40.78c-6.003-10.105-6.682-17.126-7.885-29.637c-1.1-11.483-3.937-31.189-18.185-42.301
				c1.737,0.75,3.382,1.624,4.914,2.611c16.931,10.876,18.699,26.974,18.699,46.321c0,19.336,11.174,16.921,11.482,37.161
				c0.298,20.241-11.791,28.403-11.791,28.403c-2.416,7.556,3.022,18.432,10.28,25.679
				C260.427,230.337,263.151,240.915,254.989,245.747z"/>
			<path style="opacity:0.36;fill:#00092B;" d="M239.723,248.831c-3.403,2.385-11.565,7.453-20.087,8.152
				c-11.184,0.905-35.054-4.533-35.054-4.533s-31.723,19.038-43.206-3.022c-2.693-5.191-3.783-10.424-3.845-15.584
				c-0.236-16.725,10.064-32.731,10.177-44.039c0.01-0.072,0.01-0.134,0.01-0.206c0-10.835-2.59-29.75-2.796-44.203
				c0-0.473-0.01-0.936-0.01-1.388c0-0.411,0.01-0.822,0.01-1.223c0.062-3.886,0.36-7.34,0.987-10.043
				c0.041-0.175,0.082-0.35,0.123-0.524c2.992-12.593,6.219-17.003,6.219-17.003s3.752-18.329,14.33-28.002
				c8.542-7.802,30.027-11.205,46.886-6.487c-17.157-2.642-36.236,4.061-41.818,13.98c-6.168,10.969-4.976,18.339-7.031,20.56
				c-2.056,2.231-7.71,9.087-9.077,14.392c-1.367,5.315-2.909,29.472,3.598,41.469c6.507,11.986,5.315,33.574-0.689,46.773
				c-5.993,13.189,1.378,24.158,14.053,25.525s25.186-8.913,25.186-8.913s3.773,9.252,14.906,8.399
				c11.133-0.853,19.871-13.025,21.413-12.85C235.416,230.214,240.515,240.741,239.723,248.831z"/>
			<g>
				<path style="fill:#E88C83;" d="M240.186,143.668c-1.676,14.587-10.989,21.454-21.176,24.445
					c-10.074,2.971-21.002,2.138-26.265,1.244c-10.578-1.82-24.178-10.578-23.87-24.178c0,0-9.365,2.416-11.184-5.438
					c-1.809-7.854,3.022-10.578,7.556-10.876c4.533-0.308,3.927,5.13,7.258,7.556c0.658,0.483,1.388,0.699,2.148,0.699
					c3.033,0,6.435-3.536,6.908-7.648c0.607-5.14,4.533-9.673,10.28-14.505c5.736-4.842,9.663-4.235,9.663-4.235
					s-2.714,5.746,6.651,6.949c9.365,1.213,15.41-4.534,18.73-7.556c2.889-2.621,2.817-3.197,2.745-3.3
					c0.401,0.226,7.401,4.523,10.054,17.548C240.72,129.41,241.09,135.753,240.186,143.668z"/>
			</g>
			<path style="opacity:0.28;fill:#E84A64;" d="M239.682,124.373c-5.345-7.494-8.923-10.475-8.923-10.475
				s-10.968,12.161-23.13,10.28c-12.171-1.881-10.115-9.252-10.115-9.252s-6.507,4.112-8.224,11.822
				c-1.706,7.71-4.626,10.968-7.71,12.511c-3.084,1.542-5.304,0.853-5.304,0.853s-3.084,11.647,9.077,20.734
				c12.161,9.077,22.102,8.738,27.581,8.049c2.179-0.278,4.307-0.545,6.075-0.781c-10.074,2.971-21.002,2.138-26.265,1.244
				c-10.578-1.82-24.178-10.578-23.87-24.178c0,0-9.365,2.416-11.184-5.438c-1.809-7.854,3.022-10.578,7.556-10.876
				c4.533-0.308,3.927,5.13,7.258,7.556c0.658,0.483,1.388,0.699,2.148,0.699c3.033,0,6.435-3.536,6.908-7.648
				c0.607-5.14,4.533-9.673,10.28-14.505c5.736-4.842,9.663-4.235,9.663-4.235s-2.714,5.746,6.651,6.949
				c9.365,1.213,15.41-4.534,18.73-7.556c2.889-2.621,2.817-3.197,2.745-3.3C230.029,107.051,237.03,111.348,239.682,124.373z"/>
			<path style="fill:#E04747;" d="M167.107,137.798c0,1.277-1.036,2.313-2.313,2.313s-2.313-1.036-2.313-2.313
				s1.035-2.313,2.313-2.313S167.107,136.521,167.107,137.798z"/>
		</g>
		<g>
			<path style="fill:#002C4E;" d="M204.899,135.371c0,1.863-1.037,3.373-2.317,3.373c-1.279,0-2.317-1.51-2.317-3.373
				s1.037-3.373,2.317-3.373C203.862,131.997,204.899,133.508,204.899,135.371z"/>
			<path style="fill:#002C4E;" d="M235.219,135.371c0,1.863-1.037,3.373-2.317,3.373c-1.279,0-2.317-1.51-2.317-3.373
				s1.037-3.373,2.317-3.373C234.182,131.997,235.219,133.508,235.219,135.371z"/>
			<path style="fill:#E04747;" d="M222.739,136.981c0.427,1.593,0.731,3.225,1.561,4.27c0.413,0.516,0.884,0.839,1.611,1.274
				c0.35,0.218,0.725,0.48,1.096,0.828c0.367,0.354,0.7,0.817,0.907,1.296c0.833,1.939,0.168,4.272-1.502,5.413
				c-1.619,1.125-3.761,0.98-5.072-0.061c1.636,0.232,3.161-0.262,4.06-1.183c0.883-0.876,1.066-2.322,0.631-3.346
				c-0.207-0.509-0.597-0.863-1.239-1.361c-0.594-0.466-1.455-1.131-1.855-2.027c-0.445-0.859-0.561-1.774-0.563-2.624
				C222.392,138.602,222.518,137.786,222.739,136.981z"/>
			<path style="fill:#A12828;" d="M225.63,155.027c-0.021,1.233-0.545,3.012-1.974,4.431c-1.244,1.234-3.176,2.19-6.055,2.292
				c-4.05,0.134-6.353-1.583-7.412-3.536c-0.822-1.532-0.894-3.197-0.442-4.266c0.267-0.648,0.596-1.1,0.997-1.398
				c1.131-0.863,2.806-0.576,5.243-0.154c3.3,0.576,7.484,0.103,7.7,0.082c1.398-0.082,1.326-0.154,1.84,1.624
				C225.599,154.349,225.63,154.668,225.63,155.027z"/>
			<path style="fill:#FFFFFF;" d="M225.63,155.027c-0.195,0.103-0.411,0.195-0.658,0.298c-2.025,0.812-8.779,0.812-11.616-0.082
				c-1.717-0.535-2.364-1.789-2.611-2.693c1.131-0.863,2.806-0.576,5.243-0.154c3.3,0.576,7.484,0.103,7.7,0.082
				c1.398-0.082,1.326-0.154,1.84,1.624C225.599,154.349,225.63,154.668,225.63,155.027z"/>
			<path style="fill:#E8A0DA;" d="M223.827,159.972c-1.244,1.234-3.176,2.19-6.055,2.292c-4.05,0.134-6.353-1.583-7.412-3.536
				c0.761-0.524,2.488-1.172,6.332-1.018C220.651,157.865,222.789,159.088,223.827,159.972z"/>
			<path style="fill:none;stroke:#002C4E;stroke-width:2;stroke-linecap:round;stroke-miterlimit:10;" d="M197.668,126.086
				c1.429-1.868,3.951-2.829,6.261-2.387c2.31,0.442,4.298,2.267,4.936,4.531"/>
			<path style="fill:none;stroke:#002C4E;stroke-width:2;stroke-linecap:round;stroke-miterlimit:10;" d="M228.64,127.736
				c1.313-1.152,2.984-2.033,4.728-1.932c1.744,0.101,3.477,1.436,3.584,3.18"/>
		</g>
		<path style="fill:#2F2254;" d="M274.616,394.366c-14.392-14.734-77.784-5.14-86.35-1.028c-8.567,4.112-13.021-2.056-15.077-18.161
			c-2.056-16.105,3.084-47.287,10.28-59.623c7.196-12.336,42.499-62.702,42.499-62.702s33.229,85.66,39.397,103.478
			C271.533,374.149,274.616,394.366,274.616,394.366z"/>
		<g>
			<path style="fill:#E88C83;" d="M160.911,447.992l-5.654,8.224c0,0,2.056,4.112,5.911,4.883c3.855,0.771,5.911-0.257,5.911-0.257
				l5.911-9.766L160.911,447.992z"/>
			<path style="fill:#E88C83;" d="M212.31,455.445l-1.028,7.967c0,0,2.056,1.285,5.14,1.285c3.084,0,4.369-0.771,4.369-0.771v-9.509
				L212.31,455.445z"/>
			<path style="fill:#48458D;" d="M249.754,332.43c0,10.7-3,28.47-7.03,47.48c-0.16,0.76-0.33,1.53-0.49,2.29
				c-8.14,37.91-19.98,79.75-19.98,79.75l-7.6-0.62l-8.08-0.66l-0.07-42.1v-1.41l-0.06-31.13v-2.75l-0.03-22.35l-0.01-8.34
				l-0.08-42.01l-0.01-4.62c0,0,1.76-3.17,3.78-6.78c0.3-0.54,0.61-1.1,0.93-1.65c1.66-2.96,3.35-5.93,4.29-7.51
				c2.31-3.85,2.05-5.14,2.05-5.14l9-4.88c0,0,1.28,0.51,2.83,0c0.19-0.06,0.39-0.15,0.59-0.25c0.06-0.02,0.11-0.05,0.17-0.08
				c1.31-0.68,2.58-1.86,2.58-1.86s1.47,1.89,3.54,5.38c0.19,0.31,0.38,0.65,0.59,1c0.27,0.48,0.55,0.98,0.85,1.51
				c0.04,0.07,0.08,0.14,0.11,0.21C242.714,295.17,249.754,311.71,249.754,332.43z"/>
			<path style="opacity:0.38;fill:#341B66;" d="M240.364,381.811c-2.406,12.449-17.394,25.72-17.692,26.604
				c-0.288,0.863-6.188,40.564-8.018,52.91l-8.08-0.658l-0.072-43.504l-0.062-33.882l-0.031-22.348l-0.082-50.351l-0.01-4.626
				c0,0,1.758-3.166,3.773-6.774c1.933-3.444,4.102-7.278,5.222-9.159c2.313-3.855,2.056-5.14,2.056-5.14l8.995-4.883
				c0,0,1.285,0.514,2.827,0c0.247-0.082,0.504-0.195,0.761-0.329c2.971,1.336,5.119,2.786,6.127,3.516
				c0.421,0.319,0.648,0.504,0.648,0.504c-0.021,0.164-0.041,0.339-0.062,0.504c-2.467,19.172-9.879,27.591-9.879,27.591
				s11.308,50.71,13.713,64.424C240.816,378.028,240.744,379.909,240.364,381.811z"/>
			<path style="fill:#48458D;" d="M237.414,378.79c-0.4,2.5-1.42,5.09-3.26,8.04c-1.58,2.53-12.22,14.57-24.23,27.94
				c-1.13,1.26-2.27,2.52-3.42,3.8c-11.36,12.61-23.3,25.68-29.58,32.53c-2.78,3.04-4.45,4.86-4.45,4.86s-5.4-0.26-9.51-2.83
				s-4.88-5.39-4.88-5.39s39.32-68.37,38.55-72.48c-0.77-4.11-30.07-42.92-32.38-59.36c-2.32-16.45,4.92-36.56,4.92-36.56
				l60.61-1.74c0,0,0.05,0.81,0,2.15c-0.06,1.76-0.3,4.44-1.03,7.36c-0.29,1.2-0.93,2.86-1.75,4.7c-2.7,6.08-7.41,14.19-8.78,14.58
				c-1.8,0.51-5.91,1.8-5.91,1.8s22.87,57.05,24.41,62.45C237.524,373.46,237.844,376.06,237.414,378.79z"/>
			<path style="opacity:0.38;fill:#341B66;" d="M211.024,297.53c-6.64,1.9-11.37,2.82-10.97,2.95c1.03,0.34-5.48,29.81,0.35,41.12
				c1.71,3.33,3.84,7.19,6,10.99c1.16,2.03,2.32,4.05,3.43,5.95c3.83,6.6,7.02,11.84,7.02,11.84s-2.78,4.18-6.99,10.51
				c-1.06,1.59-2.2,3.31-3.42,5.14c-12.56,18.88-32.5,48.71-36.2,53.56c-4.45,5.85,3.54,10.12,6.68,11.51
				c-2.78,3.04-4.45,4.86-4.45,4.86s-5.4-0.26-9.51-2.83s-4.88-5.39-4.88-5.39s39.32-68.37,38.55-72.48
				c-0.77-4.11-30.07-42.92-32.38-59.36c-2.32-16.45,4.92-36.56,4.92-36.56l60.61-1.74c0,0,0.05,0.81,0,2.15
				c0.06-0.02,0.11-0.05,0.17-0.08c1.31-0.68,2.58-1.86,2.58-1.86s1.47,1.89,3.54,5.38c0.19,0.31,0.38,0.65,0.59,1
				c0.27,0.48,0.55,0.98,0.85,1.51c0.04,0.07,0.08,0.14,0.11,0.21c-3.2,2.27-6.86,4.23-10.62,5.9c-4.59,2.06-9.31,3.7-13.49,4.98
				C212.664,297.05,211.824,297.29,211.024,297.53z"/>
			<path style="fill:#48458D;" d="M164.509,458.786c5.14,2.056,3.855,5.911,6.425,9.766c2.57,3.855,6.682,4.626,6.939,6.939
				c0.257,2.313-4.883,4.112-10.023,1.542c-5.14-2.57-15.163-8.995-18.504-11.565c-3.341-2.57,1.799-9.509,3.855-10.794
				c2.056-1.285,6.168,1.285,6.939,1.799C160.911,456.987,164.509,458.786,164.509,458.786z"/>
			<path style="fill:#48458D;" d="M208.279,462.075c8.782,0.16,15.489,1.916,15.489,1.916s-1.437,4.311,0.798,7.824
				c2.236,3.513,7.345,1.437,9.581,4.311c2.236,2.874,0.479,4.95,0.479,4.95s-21.876-1.277-26.028-2.555
				c-4.152-1.277-2.874-5.908-3.034-10.858C205.405,462.714,208.279,462.075,208.279,462.075z"/>
		</g>
		<path style="fill:#887ED5;" d="M114.674,114.162l-0.868-0.614c0,0-0.837-0.807,2.241-1.233c3.078-0.426,17.236-1.563,17.852-1.421
			c0.616,0.142,0.724,0.567,0.724,0.567s-0.582,2.511-3.376,3.79C128.453,116.53,114.674,114.162,114.674,114.162z"/>
		<path style="fill:#1E1280;" d="M113.569,118.349c-0.174-0.872,0.347-1.44,1.909-1.44c1.563,0,19.462-0.947,20.125-0.474
			c0.663,0.474,0.633,1.924,0.633,1.924s-4.658,5.747-12.424,5.51c-7.766-0.237-8.808-3.551-9.423-4.025
			C113.774,119.371,113.569,118.349,113.569,118.349z"/>
		<path style="fill:#D6D2FF;" d="M136.082,120.343c0,0-1.254,3.557-9.519,3.875c-1.85,0.072-3.423,0.041-4.739-0.031
			c-4.564-0.288-6.137-1.223-6.137-1.223l-1.46-3.773l-0.422-5.644c0,0,1.573,1.254,8.162,1.357
			c0.987,0.021,1.953-0.051,2.899-0.175c5.366-0.699,9.756-3.269,9.756-3.269L136.082,120.343z"/>
		<path style="opacity:0.4;fill:#6F3DAD;" d="M126.244,122.975c0,0-1.933,0.689-4.42,1.213c-4.564-0.288-6.137-1.223-6.137-1.223
			l-1.46-3.773l-0.422-5.644c0,0,1.573,1.254,8.162,1.357c0.987,0.021,1.953-0.051,2.899-0.175
			C124.075,118.123,126.244,122.975,126.244,122.975z"/>
		<g>
			<path style="fill:#E88C83;" d="M224.803,256.477c0.861,13.51,6.317,21.542,6.317,21.542s-3.158,8.398-22.683,11.319
				c-19.524,2.921-40.771-6.572-40.771-6.572s1.436-6.572,2.584-11.319c1.148-4.746-0.861-10.589-0.861-10.589
				s22.97,6.937,35.89,5.112C218.199,264.145,224.803,256.477,224.803,256.477z"/>
			<g>
				<path style="fill:#FFCB71;" d="M227.799,257.579c0,0-6.785,5.14-18.144,7.443c-2.416,0.493-5.037,0.863-7.844,1.018
					c-12.243,0.699-24.661-2.498-29.832-4.04c-1.593-0.473-2.498-0.792-2.498-0.792s-0.915-12.994-4.533-22.965
					c-3.629-9.971-7.258-19.943-7.258-19.943s3.012-2.529,6.404-6.209c2.58-2.806,5.366-6.271,7.196-9.807
					c4.235-8.152,3.927-17.517,3.927-17.517l5.438,0.298c0,0,0,0.606,16.016,3.927s19.336-3.629,19.336-3.629
					s2.118,0.607,4.533,3.629c0.36,0.452,0.843,1.336,1.408,2.539c3.249,6.887,9.17,24.075,9.17,27.673
					c0,4.235-4.534,12.089-5.438,22.965C224.777,253.056,227.799,257.579,227.799,257.579z"/>
				<path style="opacity:0.36;fill:#FF8B52;" d="M195.458,203.158c0,0,6.517,10.629,7.196,25.36
					c0.689,14.731-1.367,30.151-1.367,30.151s-5.479,3.773,7.535,6.168c0.288,0.052,0.565,0.113,0.833,0.185
					c-2.416,0.493-5.037,0.863-7.844,1.018c-12.243,0.699-24.661-2.498-29.832-4.04c-0.288-1.121-0.565-2.333-0.843-3.67
					c-2.827-13.662-6.137-32.68-7.042-46.239c-0.411-6.158-0.329-11.184,0.524-14.073c1.573-5.294,4.379-10.485,8.604-13.631
					l1.994,0.38l5.438,0.298c0,0,0,0.606,16.016,3.927s19.336-3.629,19.336-3.629s2.118,0.607,4.533,3.629
					c0.36,0.452,0.843,1.336,1.408,2.539C216.1,205.285,195.458,203.158,195.458,203.158z"/>
			</g>
		</g>
		<path style="fill:#E88C83;" d="M215.309,190.112c-1.326,3.166-4.873,6.836-14.104,7.34c-15.111,0.822-19.737-10.095-20.447-12.079
			c-0.072-0.195-0.103-0.308-0.103-0.308s4.842,0.905,6.949-2.416c1.419-2.231,2.292-9.365,2.714-13.816
			c0.822,0.216,1.635,0.391,2.426,0.524c3.115,0.535,8.214,1.038,13.95,0.75c-0.113,1.079-0.216,2.241-0.319,3.413
			c-0.195,2.262-0.339,4.523-0.339,6.106c0,4.533,9.971,5.736,9.971,5.736S216.368,187.573,215.309,190.112z"/>
		<path style="opacity:0.28;fill:#E84A64;" d="M215.309,190.112c-1.326,3.166-4.873,6.836-14.104,7.34
			c-15.111,0.822-19.737-10.095-20.447-12.079c-0.072-0.195-0.103-0.308-0.103-0.308s4.842,0.905,6.949-2.416
			c1.419-2.231,2.292-9.365,2.714-13.816c0.822,0.216,1.635,0.391,2.426,0.524c3.115,0.535,8.214,1.038,13.95,0.75
			c-0.113,1.079-0.216,2.241-0.319,3.413c-9.252,0.977-12.624,0.514-12.624,0.514s-0.175,8.049-2.231,11.133
			c-2.056,3.084-2.57,2.745-2.57,2.745s3.084,5.993,13.189,6.343C208.761,194.481,213.099,191.911,215.309,190.112z"/>
		<g>
			<g>
				<path style="fill:#887ED5;" d="M251.144,201.533l-5.87,6.425L229.3,225.434c0,0,1.028-5.911-1.028-14.906
					c-1.223-5.366-4.379-12.387-6.713-17.167c-1.583-3.238-2.796-5.448-2.796-5.448s6.425-0.771,11.822,1.285
					C235.981,191.253,251.144,201.533,251.144,201.533z"/>
				<path style="opacity:0.36;fill:#36177D;" d="M229.3,225.434c0,0,1.028-5.911-1.028-14.906
					c-1.223-5.366-4.379-12.387-6.713-17.167c1.583-2.714,5.089-4.245,5.089-4.245c5.16,7.956,13.282,14.824,18.627,18.843
					L229.3,225.434z"/>
			</g>
			<g>
				<path style="fill:#887ED5;" d="M277.36,399.42c0,0-0.91,1.37-6.14,4.3c-0.34,0.19-0.69,0.39-1.06,0.58
					c-6.17,3.34-15.42,1.29-15.42,1.29s0-80.96-12.08-108.2c-5.54-12.49-10.32-24-13.97-33.88c-4.31-11.67-7.06-21.04-7.61-27.03
					c-1.03-11.05,1.02-19.27-0.26-29.04c-1.29-9.76-4.81-22.08-4.81-22.08c0.11,0,2.54,0.02,4.55,1.78
					c1.2,1.06,4.72,7.08,7.78,13.85c2.14,4.76,4.06,9.88,4.81,13.91c1.8,9.76-5.14,15.67-4.88,29.55
					c0.26,13.88,4.63,23.9,23.9,54.74c6.88,11,12.05,26.9,15.85,42.81C274.91,370.7,277.36,399.42,277.36,399.42z"/>
				<path style="opacity:0.4;fill:#DDE8FF;" d="M277.36,399.42c0,0-0.91,1.37-6.14,4.3c0.52-6.73,0.07-16.87-3.45-31.28
					c-7.55-30.84-18.51-76.41-29.14-90.81c-3.71-5.03-6.97-11.57-9.45-18.3c-4.62-12.52-6.58-25.69-3.91-31.04
					c2.89-5.78,4.43-20.68,3.07-31.3c2.14,4.76,4.06,9.88,4.81,13.91c1.8,9.76-5.14,15.67-4.88,29.55
					c0.26,13.88,4.63,23.9,23.9,54.74c6.88,11,12.05,26.9,15.85,42.81C274.91,370.7,277.36,399.42,277.36,399.42z"/>
			</g>
		</g>
		<g>
			<path style="fill:#E88C83;" d="M141.315,86.985c-1.367,1.573-1.676,2.097-2.406,5.644c-0.658,3.218-2.775,7.278-3.947,9.272v0.01
				c-0.134,0.206-0.236,0.401-0.339,0.555c-0.463,0.73-1.254,1.059-2.118,0.853c-0.607-0.154-1.244-0.576-1.83-1.316
				c-0.493-0.617-0.935-1.47-1.285-2.57c-0.966-3.053-0.452-7.216-0.072-9.365c0.082-0.514,0.165-0.915,0.216-1.151
				c0.041-0.164,0.062-0.257,0.062-0.257s1.676,1.151,2.827,0.73s2.2-1.778,3.454-3.341c1.254-1.573,2.19-1.47,4.287-1.891
				c1.162-0.226,1.809,0.185,1.912,0.874C142.168,85.577,141.911,86.286,141.315,86.985z"/>
			<path style="fill:#E88C83;" d="M126.46,83.747c0,0-0.206,0.935-2.93,0.935c-1.552,0-2.385-0.884-2.817-1.645
				c-0.247-0.421-0.36-0.812-0.401-0.976c-0.01-0.062-0.021-0.093-0.021-0.093l-0.103-2.621c0,0-0.195-2.467-0.329-5.171
				c0-0.01,0-0.01,0-0.021c-0.021-0.442-0.041-0.884-0.062-1.326c-0.093-2.529-0.103-4.955,0.175-5.51
				c0.627-1.254,4.081-0.936,4.708,0.422c0.041,0.092,0.082,0.247,0.134,0.452c0.545,2.395,1.347,11.935,1.583,14.762
				C126.44,83.459,126.46,83.747,126.46,83.747z"/>
			<path style="fill:#E88C83;" d="M121.906,81.999c0,0.175-0.01,0.308-0.051,0.38c-0.154,0.309-0.586,0.514-1.141,0.658
				c-0.843,0.206-1.963,0.257-2.847,0.247h-0.01c-0.535-0.01-0.977-0.031-1.223-0.062c-0.154-0.021-0.319-0.236-0.483-0.596
				c-0.863-1.861-1.819-7.463-1.819-7.463c-0.082-0.113-0.401-1.234-0.73-2.611c-0.031-0.123-0.062-0.247-0.092-0.38
				c-0.504-2.179-0.966-4.832-0.535-5.263c0.73-0.73,3.762-0.627,4.595,0.936c0.021,0.041,0.041,0.082,0.072,0.134
				c0.401,0.853,1.336,3.434,2.22,6.178c0,0.01,0,0.01,0,0.021c0.021,0.072,0.051,0.144,0.072,0.216
				c0.946,2.94,1.82,6.024,1.953,7.371C121.896,81.845,121.896,81.927,121.906,81.999z"/>
			<path style="fill:#E88C83;" d="M134.962,101.901v0.01c-0.226,2.005-0.565,3.968-0.761,5.15c-0.421,2.621,0.206,6.487,0.206,6.487
				s-1.676,3.454-9.098,3.762c-0.298,0.01-0.586,0.021-0.864,0.021c-6.764,0.093-9.17-2.313-9.17-2.313l1.768-10.773l-5.746-15.903
				c0,0-0.021-0.031-0.051-0.093c-0.257-0.473-1.357-2.796,0.874-4.266c0.36-0.247,0.812-0.473,1.377-0.658
				c0.021-0.01,0.051-0.021,0.072-0.021c0.483-0.164,0.977-0.298,1.48-0.422c0,0,0.01-0.01,0.021-0.01
				c0.021-0.01,0.041-0.01,0.062-0.01c0.329-0.092,0.679-0.164,1.018-0.236c0.853-0.175,1.706-0.319,2.539-0.411
				c0.555-0.072,1.1-0.123,1.624-0.154c0.555-0.041,1.09-0.062,1.593-0.062c1.511-0.031,2.755,0.082,3.505,0.278
				c0.35,0.092,0.678,0.329,0.987,0.678c0.596,0.648,1.131,1.665,1.624,2.735c0.535,1.151,1.028,2.354,1.511,3.228
				c0.195,0.36,0.391,0.668,0.586,0.894c1.172,1.347,3.115,3.32,4.235,5.181c0.185,0.298,0.339,0.596,0.473,0.884
				C135.342,97.018,135.239,99.485,134.962,101.901z"/>
			<path style="fill:#E88C83;" d="M115.163,84.22c-0.123,0.504-0.36,1.182-0.833,2.035c-0.123,0.226-0.257,0.422-0.391,0.596
				c-1.141,1.491-2.642,1.491-2.642,1.491s-0.021-0.031-0.051-0.093c-0.771-1.141-8.368-12.511-9.365-13.713
				c-1.038-1.254,1.049-3.033,2.303-2.714c0.319,0.082,1.192,0.853,2.323,1.963c1.336,1.306,3.022,3.084,4.554,4.739
				c1.83,1.953,3.444,3.732,3.989,4.359c0.051,0.041,0.082,0.082,0.113,0.113l0.082,0.092c0.021,0.021,0.031,0.031,0.031,0.031
				S115.348,83.48,115.163,84.22z"/>
			<path style="fill:#E88C83;" d="M118.72,81.866c0.01,0.123,0,0.237-0.031,0.35c-0.072,0.421-0.391,0.771-0.822,1.069h-0.01
				c-0.514,0.35-1.192,0.627-1.85,0.874c-0.278,0.113-0.565,0.123-0.843,0.062c-0.637-0.113-1.223-0.565-1.593-0.915
				c-0.247-0.226-0.391-0.401-0.391-0.401c-0.113-0.082-1.028-1.984-2.118-4.379c-0.278-0.617-0.576-1.275-0.863-1.933
				c-0.01-0.021-0.021-0.041-0.031-0.062c-1.542-3.475-3.104-7.196-3.156-7.843c-0.103-1.254,2.303-1.676,3.454-0.946
				c0.421,0.267,1.655,2.128,3.043,4.431C115.862,76.037,118.658,81.146,118.72,81.866z"/>
			<path style="opacity:0.28;fill:#E84A64;" d="M110.167,76.531c-1.542-3.475-3.104-7.196-3.156-7.843
				c-0.103-1.254,2.303-1.676,3.454-0.946c0.421,0.267,1.655,2.128,3.043,4.431c-0.504-2.179-0.966-4.832-0.535-5.263
				c0.73-0.73,3.762-0.627,4.595,0.936c0.021,0.041,0.041,0.082,0.072,0.134c-1.47,0.144-3.218,2.621-3.218,2.621
				s2.313,4.873,3.475,6.929c1.151,2.056,0.822,4.338,0.822,4.338s-3.053-5.757-5.119-9.313c-0.72-1.254-1.326-2.231-1.624-2.601
				c-1.151-1.408-2.303,1.408-2.303,1.408l2.95,6.815l2.508,4.688l0.123,0.226h-0.01l-0.082-0.092l-0.093-0.123l-3.855-4.441
				c0,0-0.432-0.843-1.018-1.84C110.187,76.572,110.177,76.551,110.167,76.531z"/>
			<path style="opacity:0.28;fill:#E84A64;" d="M119.799,72.83c-0.093-2.529-0.103-4.955,0.175-5.51
				c0.627-1.254,4.081-0.936,4.708,0.422c0.041,0.092,0.082,0.247,0.134,0.452c-1.223,0.103-2.683,2.138-2.683,2.138l-0.514,4.893
				c0,0,1.028,4.112,1.419,5.387c0.288,0.977-0.658,1.141-1.151,1.151c-0.154,0.021-0.267,0.01-0.267,0.01l-1.665-7.062
				c0,0,0-0.113-0.021-0.319C119.912,74.063,119.871,73.488,119.799,72.83z"/>
			<path style="opacity:0.28;fill:#E84A64;" d="M142.075,85.032c-1.891-0.195-3.536,1.326-5.294,2.909
				c-2.56,2.303-0.905,6.404-2.426,7.052l-0.01,0.01c-1.336,0.565-3.742-2.652-5.027-4.934c-0.195-0.35-0.37-0.678-0.504-0.966
				c-0.349-0.74-0.596-1.953-0.792-3.413c0.535,1.151,1.028,2.354,1.511,3.228c0.041-0.164,0.062-0.257,0.062-0.257
				s1.676,1.151,2.827,0.73s2.2-1.778,3.454-3.341c1.254-1.573,2.19-1.47,4.287-1.891C141.325,83.932,141.973,84.343,142.075,85.032
				z"/>
			<path style="opacity:0.28;fill:#E84A64;" d="M132.669,102.467c0,0.092-0.041,0.422-0.164,0.853
				c-0.36,1.244-1.408,3.382-4.081,3.382c-3.598,0-4.112-0.771-4.235,3.207c-0.072,2.2,0.093,5.191,0.257,7.422
				c-6.764,0.093-9.17-2.313-9.17-2.313l1.768-10.773l-5.746-15.903c0,0-0.021-0.031-0.051-0.093
				c-0.771-1.141-8.368-12.511-9.365-13.713c-1.038-1.254,1.049-3.033,2.303-2.714c0.319,0.082,1.192,0.853,2.323,1.963
				c-0.35,0.463-0.504,1.193-0.308,1.82c0.298,0.966,3.917,5.623,5.921,8.378c0.658,0.905,1.151,1.614,1.275,1.902
				c0.113,0.267,0.298,0.576,0.545,0.966c0.822,1.305,2.354,3.505,4.338,7.771c2.57,5.52,2.95,6.682,5.911,6.425
				c2.961-0.257,3.341-2.179,3.341-2.179s0.134,2.57,2.056,2.95c0.401,0.082,0.761,0.134,1.09,0.185
				C131.939,102.169,132.669,102.158,132.669,102.467z"/>
			<g>
				<path style="fill:#887ED5;" d="M174.611,203.795c-1.706,6.456-4.852,10.722-7.864,13.487c-3.886,3.588-7.545,4.646-7.545,4.646
					s-0.596-0.349-1.635-1.038c-5.387-3.608-22.739-16.509-31.6-38.549c-8.563-21.269-11.39-51.882-12.151-60.733
					c-0.185-2.077-0.247-3.259-0.247-3.259s0.134,0.473,0.74,1.059c0.01,0.01,0.01,0.01,0.01,0.01
					c1.018,0.977,3.362,2.262,8.615,2.262c6.98,0,11.493-2.272,12.86-3.063c0.298-0.164,0.442-0.257,0.442-0.257
					c0.02,0.103,0.154,0.884,0.411,2.21c1.12,5.716,4.605,21.454,11.38,35.486c8.46,17.527,27.19,28.712,27.19,28.712
					S178.538,188.992,174.611,203.795z"/>
				<path style="fill:#887ED5;" d="M194.091,381.173c0,1.234-1.079,3.793-2.714,6.929c-1.83,3.526-4.338,7.802-6.764,11.75
					c-3.999,6.517-7.741,12.161-7.741,12.161s-6.425,1.285-14.135,1.028c-6.507-0.216-10.814-2.632-12.007-3.382
					c-0.216-0.134-0.329-0.216-0.329-0.216s-4.112-37.007,2.313-77.87c6.425-40.862,16.705-59.109,17.476-62.45
					c0.689-2.971-10.187-39.989-12.624-48.233c-0.308-1.038-0.483-1.624-0.483-1.624s6.754-4.009,12.233-12.603l0.01-0.01
					c0.555-0.884,1.11-1.82,1.634-2.806c3.063-5.716,4.061-10.835,4.328-14.33c0.226-2.961-0.072-4.749-0.072-4.749l5.438,0.298
					c0,0,11.38,23.921,12.922,35.486C195.119,232.116,194.091,376.29,194.091,381.173z"/>
				<path style="opacity:0.36;fill:#36177D;" d="M184.613,399.852c-3.999,6.517-7.741,12.161-7.741,12.161
					s-6.425,1.285-14.135,1.028c-6.507-0.216-10.814-2.632-12.007-3.382c-0.216-0.134-0.329-0.216-0.329-0.216
					s-4.112-37.007,2.313-77.87c6.425-40.862,16.705-59.109,17.476-62.45c0.689-2.971-10.187-39.989-12.624-48.233
					c-5.387-3.608-22.739-16.509-31.6-38.549c-8.563-21.269-11.39-51.882-12.151-60.733c-0.185-2.077-0.247-3.259-0.247-3.259
					s0.134,0.473,0.74,1.059c0.01,0.01,0.01,0.01,0.01,0.01c1.018,0.977,3.362,2.262,8.615,2.262c6.98,0,11.493-2.272,12.86-3.063
					c0.298-0.164,0.442-0.257,0.442-0.257c0.02,0.103,0.154,0.884,0.411,2.21c-7.021,8.625-11.77,8.923-11.77,8.923
					s-3.773,18.843,7.535,48.315c11.308,29.462,23.304,31.179,27.416,31.867c4.112,0.678,11.647-12.685,11.647-11.657
					c0,0.493-1.018,4.266-2.148,8.635l-0.01,0.01c-0.946,3.649-1.974,7.71-2.57,10.619c-0.185,0.905-0.329,1.686-0.411,2.323
					c-0.689,5.14,19.532,44.553,19.193,50.721c-0.35,6.168-21.249,59.962-21.937,92.169c-0.678,32.217-2.056,35.301,5.829,38.724
					C173.429,402.956,179.463,401.599,184.613,399.852z"/>
				<path style="fill:#A8A7C9;" d="M194.091,381.173c0,1.234-1.079,3.793-2.714,6.929c-0.021-0.411-0.031-0.833-0.031-1.275
					c0-11.997,1.378-135.354-1.706-152.83c-2.323-13.179-10.485-34.705-14.351-44.481c0.226-2.961-0.072-4.749-0.072-4.749
					l5.438,0.298c0,0,11.38,23.921,12.922,35.486C195.119,232.116,194.091,376.29,194.091,381.173z"/>
			</g>
		</g>
	</g>
	<g>
		<g>
			<path style="fill:#48458D;" d="M525.781,452.624c0,0,0.522,3.305-2.435,7.653c-2.957,4.348-6.087,8.348-6.087,11.653
				c0,3.305,2.957,5.044,10.435,5.391c7.479,0.348,10.609-3.478,10.088-9.218c-0.522-5.74,0.348-8.522,0.348-11.653
				c0-3.131-0.522-6.087-0.522-6.087L525.781,452.624z"/>
			<path style="fill:#48458D;" d="M603.698,451.928c1.391,2.435,3.652,10.261,5.392,12.696c1.739,2.435,8,1.391,15.305,2.261
				c7.305,0.87,17.218,2.087,17.74-1.217c0.522-3.305,2.261-4.87-3.826-9.218c-6.087-4.348-13.392-5.392-16.175-6.957
				c-2.783-1.565-6.087-7.131-6.087-7.131L603.698,451.928z"/>
			<path style="fill:#E66D4C;" d="M621.612,442.884c0,0-4.112,5.14-10.28,8.902c-4.112,2.519-7.607,1.676-9.488,0.833
				c-0.935-0.411-1.47-0.833-1.47-0.833s-29.784-29.453-48.545-75.239c-16.818-41.058-22.955-66.13-22.955-66.13l-3.084,0.339
				c0,0,0.031,0.278,0.093,0.802c1.306,10.527,14.957,121.559,14.638,135.92c-0.062,2.642-0.607,4.626-1.47,6.096
				c-0.123,0.216-0.257,0.422-0.411,0.617c-4.338,6.003-14.834,1.511-15.934-1.234c-1.377-3.423-17.825-31.867-26.728-75.043
				c-8.306-40.245-13.939-86.145-14.659-92.189c-0.051-0.442-0.082-0.668-0.082-0.668l77.52-0.689h0.267l-0.339,7.545l1.059,2.519
				l0.226,0.535l59.503,142.86L621.612,442.884z"/>
			<path style="opacity:0.1;fill:#D9003A;" d="M504.028,371.418c10.28,46.002,25.689,77.489,25.689,77.489s3.31,3.978,8.923,5.284
				c0.062,0.021,0.123,0.041,0.185,0.051c-4.06,6.908-15.214,2.221-16.345-0.617c-1.378-3.423-17.825-31.867-26.727-75.043
				c-8.913-43.175-14.741-92.858-14.741-92.858h0.308l77.448-0.689l-0.01-0.668h0.267l-0.339,7.545l1.059,2.519l0.226,0.535
				c-0.144,0.041-0.298,0.082-0.452,0.134c-5.356,1.665-15.132,4.503-26.45,6.857c-17.198,3.577-40.43-1.121-40.873-2.015
				C491.743,299.058,493.758,325.405,504.028,371.418z"/>
			<path style="opacity:0.1;fill:#D9003A;" d="M621.612,442.884c0,0-4.112,5.14-10.28,8.902c-4.112,2.519-7.607,1.676-9.488,0.833
				c-0.935-0.411-1.47-0.833-1.47-0.833s-29.784-29.453-48.545-75.239c-16.818-41.058-22.955-66.13-22.955-66.13l-3.084,0.339
				c0,0,0.031,0.278,0.093,0.802c-1.11-0.648-5.592-2.035-8.635-2.95c1.748,0.278,4.431,0.473,8.45,0.278
				c8.83-0.432,16.201-7.309,16.715-7.792c-0.267,0.339-2.467,3.228-3.094,8.46c-0.668,5.582,0,17.64,17.424,56.498
				c17.414,38.868,53.541,79.104,53.541,79.104s4.503-0.977,9.19-7.33L621.612,442.884z"/>
		</g>
		<g>
			<g>
				<path style="fill:#F1BDB4;" d="M636.987,209.675c-3.115,2.292-4.575,3.125-5.51,4.163c-0.935,1.038-1.974,3.958-1.974,3.958
					l-10.927-8.43c0,0,1.408-4.904,2.19-7.7c0,0,0-0.01,0-0.021c0.031-0.134,0.072-0.267,0.103-0.391
					c0.452-1.686,1.84-4.472,3.279-6.764c0.853-1.367,1.737-2.549,2.436-3.218c0.73-0.689,1.491-1.624,2.241-2.529
					c0.01,0,0.01-0.01,0.01-0.01c0.637-0.771,1.264-1.511,1.84-2.025c0.483-0.432,0.925-0.709,1.326-0.74
					c1.449-0.103,3.536,1.038,5.51,2.806c1.974,1.768,6.97,10.403,7.689,12.377C645.931,203.127,640.112,207.393,636.987,209.675z"
					/>
				<path style="fill:#F1BDB4;" d="M628.465,194.08c-0.607,1.552-1.789,2.981-3.053,4.174c-2.21,2.066-4.647,3.413-4.647,3.413
					s0-0.01,0-0.021c-0.072-0.421-1.1-6.98-2.806-11.102c-1.768-4.266-3.639-4.677-2.704-7.073c0.658-1.686,2.549-1.82,4.41-0.915
					c0.781,0.37,1.563,0.936,2.241,1.645c2.292,2.385,3.125,5.202,4.472,5.304c0.802,0.062,1.778-0.391,2.447-0.761
					c0.01,0,0.01-0.01,0.01-0.01c0.463-0.257,0.771-0.483,0.771-0.483S630.12,189.814,628.465,194.08z"/>
			</g>
			<path style="opacity:0.25;fill:#C73E5A;" d="M636.987,209.675c-3.115,2.292-4.575,3.125-5.51,4.163
				c-0.935,1.038-1.974,3.958-1.974,3.958l-10.927-8.43c0,0,1.408-4.904,2.19-7.7c0,0,0-0.01,0-0.021
				c-0.072-0.421-1.1-6.98-2.806-11.102c-1.768-4.266-3.639-4.677-2.704-7.073c0.658-1.686,2.549-1.82,4.41-0.915
				c-0.473,1.902,0.288,5.253,1.573,6.723c0.905,1.028,2.025,3.063,2.909,5.212c0.534,1.275,0.987,2.591,1.264,3.762
				c0.226,0.915,0.349,1.737,0.319,2.385c-0.123,2.868-0.997,3.988,0.123,5.366c1.059,1.295,3.125-0.092,3.351-0.236
				c-0.144,0.185-1.1,1.491,0.514,3.104c1.747,1.748,5.366-1.748,6.99-2.375c1.624-0.627,2.621-1.747,1.244-3.742
				c-1.367-1.994-1.614-5.613-1.614-5.613s-2.745-2.251-3.495-4.122c-0.535-1.347-1.727-4.246-2.169-6.312
				c0.483-0.432,0.925-0.709,1.326-0.74c1.449-0.103,3.536,1.038,5.51,2.806c1.974,1.768,6.97,10.403,7.689,12.377
				C645.931,203.127,640.112,207.393,636.987,209.675z"/>
			<path style="fill:#F1BDB4;" d="M640.893,184.973c-0.247,1.09-0.812,2.159-1.655,2.827c-0.483,0.391-1.223,1.254-2.077,2.262
				l-0.01,0.01c-0.473,0.565-0.987,1.172-1.511,1.768c-1.532,1.768-3.135,3.403-4.102,3.351c-1.007-0.051-1.84-0.565-2.344-1.192
				c-0.452-0.524-0.668-1.141-0.565-1.614c0.01-0.031,0.021-0.072,0.031-0.113c0.493-1.48,5.788-10.598,5.788-10.598
				c1.902-2.056,3.32-2.282,4.348-1.799c1.049,0.493,1.686,1.737,1.994,2.519C641.079,183.112,641.099,184.047,640.893,184.973z"/>
			<path style="fill:#F1BDB4;" d="M644.646,191.027c-0.648,0.936-2.467,2.806-4.441,4.4c-1.151,0.925-2.344,1.768-3.372,2.272
				c-0.946,0.473-1.758,0.658-2.282,0.401c-2.076-1.038-1.347-3.012-1.347-3.012s1.11-1.47,2.436-3.248
				c0.606-0.802,1.254-1.665,1.861-2.488c1.285-1.727,2.426-3.259,2.673-3.629c0.185-0.277,0.432-0.555,0.72-0.75
				c0.668-0.483,1.583-0.607,2.601,0.339C644.954,186.658,645.992,189.054,644.646,191.027z"/>
			<path style="fill:#F1BDB4;" d="M647.144,195.293c0,0.38-0.421,0.966-1.059,1.635c-0.863,0.905-2.128,1.953-3.331,2.848
				c-1.378,1.028-2.673,1.861-3.207,2.066c-0.216,0.082-0.411,0.134-0.596,0.154c-0.997,0.123-1.645-0.606-2.529-1.922
				c0,0-0.103-1.336,0.411-2.375l0.01-0.01c0.278-0.555,2.231-2.406,4.122-4.009l0.01-0.01c1.665-1.419,3.279-2.642,3.67-2.642
				C645.478,191.027,647.144,193.834,647.144,195.293z"/>
			<path style="fill:#F1BDB4;" d="M648.398,201.04c0,0.093,0,0.195-0.01,0.288c-0.206,2.488-4.06,3.742-5.829,4.153
				c-1.768,0.422-2.282-0.308-3.012-1.552c0,0-0.504-1.162-0.596-1.933c-0.021-0.092-0.031-0.175-0.031-0.257
				c0-0.288,0.843-1.09,1.933-1.964c1.686-1.347,3.968-2.858,4.729-2.919c0.164-0.01,0.329,0.01,0.504,0.072
				C647.195,197.277,648.449,198.984,648.398,201.04z"/>
			<path style="fill:#FFD99B;" d="M613.692,214.984c0,0,1.144-4.888,2.704-6.344c1.56-1.456,2.6-1.04,5.928,1.248
				c3.328,2.288,10.4,7.696,10.816,9.568c0.416,1.872-3.328,6.344-3.328,6.344s-4.368-2.912-8.112-5.512
				C617.956,217.688,613.692,214.984,613.692,214.984z"/>
			<path style="fill:#FDA213;" d="M631.323,226.801c0,0-11.986,29.812-30.84,32.556c-18.843,2.745-40.091-19.193-40.091-19.193
				s-9.108-20.313-13.066-35.691c0-0.01,0-0.01,0-0.01c-0.822-3.248-1.429-6.271-1.665-8.841
				c-1.367-14.731,1.717-17.476,1.717-17.476c8.224-0.689,19.871,5.479,26.728,19.871c6.846,14.392,8.563,23.644,22.266,27.077
				c13.713,3.423,16.448-12.336,16.448-12.336s7.885,3.423,11.997,6.507c0.123,0.092,0.236,0.185,0.36,0.288
				C629.072,222.607,631.323,226.801,631.323,226.801z"/>
			<path style="opacity:0.1;fill:#D9003A;" d="M631.323,226.801c0,0-11.986,29.812-30.84,32.556
				c-18.843,2.745-40.091-19.193-40.091-19.193s-9.108-20.313-13.066-35.691c0-0.01,0-0.01,0-0.01
				c1.892-7.823,6.219-12.264,6.219-12.264c0.463,0.164,0.925,0.339,1.378,0.535c10.794,4.636,16.941,17.352,20.889,35.445
				c4.112,18.843,30.161,17.815,38.035,8.224c6.034-7.35,9.858-14.094,11.328-16.849
				C629.072,222.607,631.323,226.801,631.323,226.801z"/>
			<path style="fill:#FDA213;" d="M480.898,159.982l-0.267,9.725l-0.761,27.632c0,0-29.811-20.56-47.287-24.672
				c-17.476-4.112-32.896,1.706-32.896,1.706s-2.056-7.874-8.913-8.902c-6.476-0.977-9.9,2.035-10.249,2.364
				c0.596-0.689,11.472-12.757,40.749-16.417c15.296-1.912,30.418,0.319,41.602,2.981
				C473.743,156.991,480.898,159.982,480.898,159.982z"/>
			<path style="opacity:0.1;fill:#D9003A;" d="M480.631,169.707l-0.761,27.632c0,0-29.811-20.56-47.287-24.672
				c-17.476-4.112-32.896,1.706-32.896,1.706s-2.056-7.874-8.913-8.902c-6.476-0.977-9.9,2.035-10.249,2.364
				c0.596-0.689,11.472-12.757,40.749-16.417c15.296-1.912,30.418,0.319,41.602,2.981c-0.257,0.473-0.534,0.956-0.822,1.47
				c-4.112,7.196-9.252,9.601-9.252,9.601S467.421,167.034,480.631,169.707z"/>
			<path style="fill:#FDA213;" d="M565.501,270.501c-0.411,1.521-0.874,2.724-1.336,3.588c-2.395,4.461-5.829,8.913-5.829,8.913
				l-77.87-2.724l-0.596-0.021c0,0-9.941-12.336-9.591-16.448c0.339-4.112,10.619-28.434,13.014-34.602
				c2.406-6.168-4.112-20.56-6.507-33.923c-1.11-6.178-0.308-14.176,0.853-21.002c1.378-7.946,3.259-14.299,3.259-14.299
				s20.56,5.49,29.811,6.168c9.252,0.689,36.668,11.997,36.668,11.997s4.451,21.588,6.507,32.895
				c2.056,11.308,5.479,9.252,10.28,27.067C568.04,252.48,567.218,264.179,565.501,270.501z"/>
			<path style="opacity:0.1;fill:#D9003A;" d="M565.501,270.501c-0.411,1.521-0.874,2.724-1.336,3.588
				c-2.395,4.461-5.829,8.913-5.829,8.913l-77.87-2.724l-0.596-0.021c0,0-9.941-12.336-9.591-16.448
				c0.339-4.112,10.619-28.434,13.014-34.602c2.406-6.168-4.112-20.56-6.507-33.923c-1.11-6.178-0.308-14.176,0.853-21.002
				c4.338-2.107,10.115-1.614,10.115-1.614c-5.489,22.266,5.14,29.462,9.93,43.854c4.801,14.392,3.773,8.913-4.112,23.644
				c-7.874,14.741-2.056,22.965,22.616,28.444C533.932,272.546,555.047,270.295,565.501,270.501z"/>
			<path style="fill:#FFE8C4;" d="M477.814,275.12c-2.399,8.224,0,15.077,0,15.077s18.161,4.112,42.833,6.51
				c24.672,2.399,40.091-4.797,40.091-4.797l-0.685-11.993L477.814,275.12z"/>
			<path style="fill:#E36211;" d="M488.266,239.997c-4.455,13.021,1.028,26.727,1.028,26.727s3.084,4.112,21.245,6.511
				c18.161,2.399,22.958-1.713,22.958-1.713s3.427-4.455,3.084-15.42c-0.343-10.965-1.028-13.706-1.028-13.706
				s-9.252,4.112-24.329,0.343C496.147,238.969,488.266,239.997,488.266,239.997z"/>
			<path style="fill:#FFE8C4;" d="M529.686,170.848c0,0-12.058,7.514-22.379,5.592c-1.48-0.277-2.817-0.627-4.019-1.007
				c-7.227-2.313-9.786-6.158-9.786-6.158s0.699-4.194,1.223-6.99c0.524-2.796,0.73-2.796,4.718-4.194
				c1.922-0.679,4.852-1.162,8.1-1.47c0,0,0.01-0.01,0.01,0c7.679-0.72,17.095-0.401,18.812,0.946
				C528.813,159.489,529.686,170.848,529.686,170.848z"/>
			<path style="opacity:0.25;fill:#C73E5A;" d="M504.203,165.472c-2.118,2.262-1.182,8.481-0.915,9.961
				c-7.227-2.313-9.786-6.158-9.786-6.158s0.699-4.194,1.223-6.99c0.524-2.796,0.73-2.796,4.718-4.194
				c1.922-0.679,4.852-1.162,8.1-1.47c0,0,0.01-0.01,0.01,0c6.589,1.799,12.583,4.225,12.583,4.225
				C512.427,166.664,506.598,162.902,504.203,165.472z"/>
			<path style="fill:#FF5F3F;" d="M522.696,160.188c-0.535,0.257-1.141,0.524-1.809,0.792c-3.033,1.223-7.401,2.436-12.706,2.005
				c-2.786-0.226-5.181-0.617-6.867-1.131c-2.22-0.678-3.197-1.562-2.22-2.539c0.432-0.432,1.12-0.771,2.005-1.028
				c4.873-1.47,15.409-0.689,17.928-0.545c0.555,0.031,1.131,0.093,1.676,0.165C523.128,158.255,525.112,159.047,522.696,160.188z"
				/>
			<path style="fill:#F1BDB4;" d="M520.887,160.979c-3.033,1.223-7.401,2.436-12.706,2.005c-0.411-0.031-0.812-0.072-1.203-0.113
				c-2.272-0.226-4.225-0.576-5.664-1.018l-0.216-3.567l-0.432-7.535c0,0,3.146,0.874,8.738-0.175
				c5.602-1.049,11.02-2.272,11.02-2.272l0.103,3.701l0.175,5.901l0.072,2.457L520.887,160.979z"/>
			<path style="opacity:0.25;fill:#C73E5A;" d="M506.259,156.384l0.72,6.487c-2.272-0.226-4.225-0.576-5.664-1.018l-0.216-3.567
				l-0.432-7.535c0,0,3.146,0.874,8.738-0.175c5.602-1.049,11.02-2.272,11.02-2.272l0.103,3.701
				C514.77,156.138,506.259,156.384,506.259,156.384z"/>
			<path style="opacity:0.49;fill:#FFD48F;" d="M542.92,184.657c-10.622,7.538-8.566,23.301-5.14,34.266
				c3.427,10.965,11.65,16.448,8.566,30.154c-3.084,13.706-0.343,14.049,5.825,14.734c6.168,0.685,8.566-1.371,9.594-6.853
				s-0.685-21.588-5.483-27.07c-4.797-5.483-8.32-15.557-8.957-25.426c-0.637-9.869,5.188-15.694,4.503-20.148
				C551.144,179.86,542.92,184.657,542.92,184.657z"/>
			<path style="opacity:0.1;fill:#D9003A;" d="M514.339,307.775c0.216,0.062,1.378,0.391,2.909,0.833
				C515.264,308.299,514.493,307.878,514.339,307.775z"/>
			<path style="opacity:0.25;fill:#C73E5A;" d="M648.398,201.04c0,0.093,0,0.195-0.01,0.288c-0.206,2.488-4.06,3.742-5.829,4.153
				c-1.768,0.422-2.282-0.308-3.012-1.552c0,0-0.504-1.162-0.596-1.933c-0.997,0.123-1.645-0.606-2.529-1.922
				c0,0-0.103-1.336,0.411-2.375c-0.946,0.473-1.758,0.658-2.282,0.401c-2.076-1.038-1.347-3.012-1.347-3.012s1.11-1.47,2.436-3.248
				c-1.532,1.768-3.135,3.403-4.102,3.351c-1.007-0.051-1.84-0.565-2.344-1.192c-0.195-0.576-0.37-1.162-0.535-1.727
				c0.493-1.48,5.788-10.598,5.788-10.598c1.902-2.056,3.32-2.282,4.348-1.799c-2.529,0.247-4.112,3.989-6.003,7.658
				c-2.21,4.287-0.144,4.76,0.565,5.037c0.535,0.226,3.022-2.118,4.143-3.218c0.247-0.236,0.432-0.421,0.514-0.493
				c-0.103,0.154-0.442,0.606-0.853,1.203l-0.01,0.01c-1.11,1.604-2.817,4.256-2.529,4.996c0.422,1.079,1.511,1.223,2.076,1.172
				c0.391-0.031,2.848-1.676,4.266-2.56l0.01-0.01c0.607-0.38,1.018-0.617,0.987-0.535c-0.051,0.165-0.946,1.203-1.758,2.292
				c-0.596,0.781-1.141,1.593-1.295,2.128c-0.38,1.275,0.514,1.974,1.501,2.21c0.123,0.031,0.267,0.031,0.442,0.01
				c1.09-0.113,2.981-1.12,3.248-1.254c-0.154,0.123-0.792,0.617-1.347,1.254l-0.01,0.01c-0.442,0.514-0.833,1.11-0.874,1.676
				c-0.093,1.367,0.565,2.539,1.46,2.591c0.894,0.041,3.999-1.316,4.749-2.498C648.182,201.389,648.295,201.215,648.398,201.04z"/>
		</g>
		<g>
			<path style="fill:#FF5F3F;" d="M549.629,114.998c-0.668,1.758-1.398,3.69-2.118,6.034c-2.621,8.563-6.641,7.34-6.641,7.34
				s-12.408-8.388-18.175-12.233c-5.767-3.845-19.234-6.641-27.098-9.087c-7.864-2.447-18.874-3.32-22.893-4.019
				c-4.019-0.699-5.418,0-11.894-4.194c-0.267-0.175-0.545-0.37-0.802-0.586c-6.014-4.862-9.786-18.709-4.266-16.201
				c5.767,2.621,15.913,1.398,15.913,1.398s-3.495-1.049-5.942-2.272c-2.457-1.223-7.001-12.583-1.408-10.835
				c5.5,1.717,17.208,3.762,17.65,3.845c-0.216-0.195-3.69-3.279-4.533-7.34c-0.874-4.194,1.922-5.068,11.883-2.272
				c9.961,2.796,16.777-5.942,33.389-2.097c15.821,3.66,18.946,22.574,19.203,24.332c0,0.01,0,0.01,0,0.01
				c0.01,0.082,0.021,0.123,0.021,0.123c7.515-0.175,9.612,4.893,10.311,13.641C552.734,106.938,551.397,110.331,549.629,114.998z"
				/>
			<path style="opacity:0.43;fill:#8C1414;" d="M549.629,114.998c-0.668,1.758-1.398,3.69-2.118,6.034
				c-2.621,8.563-6.641,7.34-6.641,7.34s-12.408-8.388-18.175-12.233c-5.767-3.845-19.234-6.641-27.098-9.087
				c-7.864-2.447-18.874-3.32-22.893-4.019c-4.019-0.699-5.418,0-11.894-4.194c-0.267-0.175-0.545-0.37-0.802-0.586
				c-6.014-4.862-9.786-18.709-4.266-16.201c5.767,2.621,15.913,1.398,15.913,1.398s-3.495-1.049-5.942-2.272
				c-2.457-1.223-7.001-12.583-1.408-10.835c5.5,1.717,17.208,3.762,17.65,3.845c-0.216-0.195-3.69-3.279-4.533-7.34
				c-0.874-4.194,1.922-5.068,11.883-2.272c9.961,2.796,16.777-5.942,33.389-2.097c15.821,3.66,18.946,22.574,19.203,24.332
				c0,0.01,0,0.01,0,0.01c-0.072,0.401-0.113,0.617-0.113,0.617c-2.601-7.134-12.346-21.403-26.892-21.125
				c-14.556,0.267-21.546,3.834-25.535,2.19c-3.978-1.645-6.034-0.134-4.246,2.878c1.778,3.022,5.623,4.667,5.623,4.667
				s-15.235,2.066-19.49,1.244c-4.256-0.833-0.956,3.567,2.333,5.345c3.3,1.789,4.945,2.611,4.945,2.611s-9.745,2.878-14.546,2.601
				c-4.811-0.267-0.555,5.911,1.779,7.412c2.333,1.511,5.767,3.3,10.568,0c4.801-3.29,9.745-5.078,13.456-5.623
				c3.701-0.545,1.778,1.511,2.19,3.845c0.411,2.333,9.2-5.633,19.491-3.845c10.29,1.789,15.913,7.412,15.913,7.412
				s-3.834,2.2-1.501,7c2.333,4.801,5.901,3.29,7.956,7.679c2.056,4.4,0.822,4.945,6.723,6.589
				C544.243,119.346,547.563,116.879,549.629,114.998z"/>
			<path style="fill:#F1BDB4;" d="M542.793,131.168c-2.621,6.641-8.738,5.068-8.738,5.068s-5.417,12.418-19.922,15.913
				c-1.82,0.442-3.752,0.853-5.757,1.193c-14.022,2.354-31.662,1.223-39.608-18.031c-9.087-22.03,0.792-34.725,0.792-35.424
				c0,0,3.146,0,8.039-1.049c4.893-1.049,11.709-5.253,11.709-5.253s-4.718,5.078-1.223,5.952c3.495,0.874,6.466-2.971,16.602-5.253
				c10.146-2.272,17.486,4.205,17.486,4.205c-0.195,0.185-0.37,0.38-0.524,0.586c-2.303,3.032-1.172,8.841,2.097,11.298
				c3.495,2.621,3.495,3.67,6.291,7.165c2.796,3.495,7.515,3.845,7.515,3.845S545.414,124.527,542.793,131.168z"/>
			<path style="opacity:0.25;fill:#C73E5A;" d="M522.172,98.488c-0.195,0.185-0.37,0.38-0.524,0.586
				c-11.411-5.16-20.334-0.175-28.588,4.03c-9.416,4.801-9.416-2.231-9.416-2.231s-0.689,2.57-5.315,4.112
				c-4.626,1.542-7.196,1.378-7.196,1.378s-5.654,20.899,7.535,37.686c6.918,8.81,19.408,10.074,29.709,9.293
				c-14.022,2.354-31.662,1.223-39.608-18.031c-9.087-22.03,0.792-34.725,0.792-35.424c0,0,3.146,0,8.039-1.049
				c4.893-1.049,11.709-5.253,11.709-5.253s-4.718,5.078-1.223,5.952c3.495,0.874,6.466-2.971,16.602-5.253
				C514.832,92.012,522.172,98.488,522.172,98.488z"/>
			<ellipse style="fill:#250929;" cx="474.904" cy="118.146" rx="1.829" ry="3.389"/>
			<path style="fill:#250929;" d="M509.98,118.146c0,1.872-0.819,3.389-1.829,3.389c-1.01,0-1.829-1.517-1.829-3.389
				c0-1.872,0.819-3.389,1.829-3.389C509.161,114.757,509.98,116.275,509.98,118.146z"/>
			<g>
				<path style="fill:#E04747;" d="M482.903,116.909c0.364,0.668,0.647,1.363,0.823,2.137c0.156,0.77,0.174,1.638-0.125,2.481
					c-0.142,0.422-0.367,0.844-0.69,1.2c-0.316,0.355-0.644,0.608-0.899,0.833c-0.528,0.441-0.684,0.702-0.806,1.213
					c-0.205,0.98,0.181,2.245,0.985,3.114c0.773,0.854,2.102,1.367,3.533,0.806c-0.432,0.643-1.242,1.027-2.08,1.106
					c-0.846,0.068-1.754-0.203-2.459-0.718c-1.403-1.016-2.307-2.811-1.935-4.722c0.106-0.471,0.299-0.947,0.601-1.362
					c0.316-0.421,0.695-0.724,1.016-0.938c0.681-0.434,0.989-0.655,1.313-1.163C482.813,119.897,482.82,118.42,482.903,116.909z"/>
			</g>
			<path style="fill:#A12828;" d="M492.977,136.061c0.062,1.388-0.874,3.002-2.447,4.174c-1.47,1.1-3.505,1.82-5.839,1.635
				c-1.933-0.154-3.547-1.069-4.708-2.416c-0.905-1.048-1.542-2.344-1.871-3.752c-0.411-1.737-0.062-2.745,0.35-3.31
				c0.123-0.165,0.278-0.288,0.452-0.37c0.267-0.134,0.596-0.165,0.905-0.072c2.693,0.833,5.345,1.151,8.748,0.35
				c1.254-0.298,2.159-0.267,2.796,0.02C492.607,132.844,492.905,134.293,492.977,136.061z"/>
			<path style="fill:#FFFFFF;" d="M491.363,132.319c0,0.812-0.082,1.953-0.463,2.118c-0.586,0.267-1.593,0.648-4.904,0.555
				c-3.31-0.082-6.322-0.175-6.795-0.946c-0.288-0.463-0.308-1.377-0.288-2.025c0.267-0.134,0.596-0.165,0.905-0.072
				c2.693,0.833,5.345,1.151,8.748,0.35C489.821,132.001,490.726,132.031,491.363,132.319z"/>
			<path style="fill:#E8A0DA;" d="M490.53,140.235c-1.47,1.1-3.505,1.82-5.839,1.635c-1.933-0.154-3.547-1.069-4.708-2.416
				c0.586-0.781,1.974-2.025,4.893-2.128C487.817,137.223,489.667,139.063,490.53,140.235z"/>
			<path style="opacity:0.3;fill:#FFA28F;" d="M536.298,81.129c-6.862-8.234-9.881-11.94-18.664-12.626
				c-8.783-0.686-13.312,0.549-15.645,1.372s-2.196,2.333,1.647,3.019c3.843,0.686,12.214,0.823,12.214,0.823
				s-3.98,1.51-10.018,4.117c-6.038,2.607-11.528,1.235-11.116,3.019c0.412,1.784,4.254,2.47,10.567,1.235
				c6.313-1.235,14.135-1.098,15.37-0.686c1.235,0.412,2.059,1.921-1.235,2.607s-4.803,2.882,0,3.98
				c4.803,1.098,9.332,2.059,11.802,4.529c2.47,2.47,3.98,7.96,4.94,11.253c0.961,3.294,3.568,2.059,3.294-1.372
				c-0.274-3.431-0.137-5.764-0.137-5.764s3.843,2.333,4.666,5.078c0.823,2.745,4.117,1.235,3.156-1.647
				c-0.961-2.882-3.156-5.764-3.156-5.764s2.882,0.961,4.803,1.921c1.921,0.961,3.843,0,0.686-3.157
				c-3.156-3.156-5.352-2.333-9.469-5.627C535.887,84.148,536.298,81.129,536.298,81.129z"/>
		</g>
	</g>
	<path style="opacity:0.43;fill:#497394;" d="M472.232,137.696c-0.288-7.772-2.159-9.519-5.736-13.549
		c-3.742-4.204-8.111-4.05-13.261-14.505c-5.14-10.444-2.806-11.071-8.1-20.426c-5.304-9.355-12.788-18.401-12.788-18.401
		s7.011-0.308,10.444-1.244c2.292-0.627,4.163-2.714,3.146-5.469c3.639,1.398,4.945,6.877,2.94,7.71
		c-1.963,0.822-10.424-0.267-10.938-0.329c0.349,0.288,5.983,4.945,9.252,12.295c3.372,7.587,5.397,25.124,11.462,30.86
		c4.585,4.318,9.93,6.538,12.572,11.925c0.853,1.758,1.429,3.845,1.593,6.445C472.931,134.786,472.695,136.349,472.232,137.696z"/>
	<g>
		<g>
			<path style="fill:#48458D;" d="M479.633,452.653c-1.456-0.437-1.456-0.437-1.456-0.437s-3.203,9.754-3.203,13.393
				c0,3.64,2.329,6.551,6.988,7.425c4.659,0.874,9.026,0.728,13.393-1.456c4.367-2.184,4.513-6.551,3.494-9.608
				c-1.019-3.057-6.114-12.957-8.007-13.976C488.95,446.976,479.633,452.653,479.633,452.653z"/>
			<path style="fill:#48458D;" d="M405.003,458.346c0,0-0.201,0.242-0.551,0.749c-0.802,1.164-2.384,3.728-4.108,7.985
				c-2.475,6.114,5.241,10.482,9.608,11.646c4.367,1.165,10.482-1.747,13.976-7.279c3.494-5.532-1.601-13.83-5.532-16.451
				c-3.931-2.62-12.665,3.639-12.665,3.639L405.003,458.346z"/>
			<path style="fill:#E88C83;" d="M406.458,450.193c0,0-0.291,3.639-1.31,6.405c-1.019,2.766-2.329,6.697,0,9.463
				c2.329,2.766,7.279,2.62,9.899,1.747c2.62-0.874,5.532-7.716,5.532-9.608c0-1.892-1.892-3.057-2.912-5.532
				c-1.019-2.475-1.31-5.387-1.31-5.387L406.458,450.193z"/>
			<path style="fill:#E88C83;" d="M477.303,443.628c0,0,1.456,3.785,0.728,7.279c-0.728,3.494,1.31,6.114,2.62,7.279
				c1.31,1.165,5.823,2.184,7.425,2.038c1.601-0.146,4.367-7.716,4.513-9.317c0.146-1.601-6.406-10.627-6.406-10.627
				L477.303,443.628z"/>
			<path style="fill:#80FFE4;" d="M400.49,444.807c0.437,4.076,1.601,6.406,3.057,6.551c1.456,0.146,13.393-1.31,14.704-2.329
				c1.31-1.019-0.402-7.376-0.402-7.376L400.49,444.807z"/>
			<path style="fill:#80FFE4;" d="M468.86,438.532c0.728,3.639,2.184,6.406,4.513,7.279c2.329,0.874,14.412-3.494,16.159-5.095
				c1.747-1.601-3.494-9.172-3.494-9.172L468.86,438.532z"/>
			<path style="fill:#4DC094;" d="M487.107,434.392c0,0-1.028,1.706-7.885,4.451c-2.868,1.151-5.14,1.635-6.805,1.82
				c-2.313,0.247-3.475-0.103-3.475-0.103s-21.279-26.83-35.332-66.243c-14.052-39.403-16.448-71.27-16.448-71.27
				c-4.112,0.689-5.479-0.689-5.479-0.689s0.01,0.082,0.021,0.247c0.401,3.958,5.49,54.596,6.147,88.16
				c0.319,16.509,0.339,29.112,0.257,37.819c-0.072,9.735-0.257,14.608-0.257,14.608l-16.797,3.084c0,0-2.056,0.35-11.308-13.014
				c-8.244-11.904-18.648-40.657-21.803-78.764c-0.38-4.677-0.658-9.499-0.812-14.443c-1.367-45.231,14.217-71.506,14.217-71.506
				l67.991-2.19l1.871,7.021c0,0,0.175,0.319,0.514,0.946c3.125,5.829,19.747,38.015,27.807,77.037
				C488.434,394.537,487.107,434.392,487.107,434.392z"/>
			<path style="opacity:0.28;fill:#0B3861;" d="M391.464,285.396c0,0-13.025,29.472-9.591,76.76
				c3.423,47.287,19.182,67.847,19.182,67.847s2.776,2.313,17.054-1.419c-0.072,9.735-0.257,14.608-0.257,14.608l-16.797,3.084
				c0,0-2.056,0.35-11.308-13.014c-8.244-11.904-18.648-40.657-21.803-78.764c-0.38-4.677-0.658-9.499-0.812-14.443
				c-1.367-45.231,14.217-71.506,14.217-71.506l67.991-2.19l1.871,7.021c0,0,0.175,0.319,0.514,0.946
				c-5.387,3.618-13.857,7.874-26.676,11.071C397.632,292.253,391.464,285.396,391.464,285.396z"/>
			<path style="opacity:0.28;fill:#0B3861;" d="M477.732,437.733l-5.315,2.93c-2.313,0.247-3.475-0.103-3.475-0.103
				s-21.279-26.83-35.332-66.243c-14.052-39.403-16.448-71.27-16.448-71.27c-4.112,0.689-5.479-0.689-5.479-0.689
				s0.01,0.082,0.021,0.247c-2.303-3.546-3.598-6.672-3.68-6.898c0.319,0.195,6.538,4.009,12.192,2.313
				c5.808-1.748,12.778-6.394,12.778-6.394s-13.066,27.591,8.429,79.298C462.919,422.632,477.732,437.733,477.732,437.733z"/>
			<path style="opacity:0.31;fill:#ABFFDF;" d="M403.657,302.083c-6.681,2.614-10.167,55.772-2.324,87.725
				c7.843,31.953,6.972,38.344,11.038,39.505c4.067,1.162-0.581-24.981-4.067-40.958c-3.486-15.977-4.938-36.31-4.357-53.448
				c0.581-17.138,1.452-23.238,2.905-31.081C408.305,295.983,403.657,302.083,403.657,302.083z"/>
			<path style="opacity:0.31;fill:#ABFFDF;" d="M451.006,284.654c-8.082,0.577-10.167,16.267,2.033,40.377
				c12.2,24.11,20.043,63.325,22.658,81.044c2.614,17.719,2.614,23.529,7.262,24.11c4.648,0.581,3.195-20.624-3.486-54.029
				c-6.681-33.405-13.653-64.196-20.624-77.268C451.877,285.816,455.072,284.364,451.006,284.654z"/>
		</g>
		<g>
			<path style="fill:#003B69;" d="M472.232,137.696c-2.313,6.723-10.372,8.471-10.372,8.471s-0.843,11.462-9.108,13.652
				c-8.255,2.19-8.594-0.164-8.594-0.164s-2.704,4.883-10.454,6.24c-7.751,1.347-8.265-0.514-8.265-0.514l-19.892,4.215
				c0,0-4.05,2.704-9.272,2.025c-5.222-0.668-10.455-5.397-10.455-5.397s-0.257,0.175-0.771,0.411
				c-1.737,0.812-6.353,2.385-13.395,0.432c-9.098-2.529-9.437-7.073-9.437-7.073s-7.247,1.347-11.297-2.025
				c-2.416-2.025-4.482-4.955-4.945-8.347c-0.031-0.226-0.051-0.463-0.072-0.689c-0.154-2.087,0.308-4.328,1.645-6.641
				c3.711-6.415,3.875-17.712,3.875-27.488c0-7.329,1.049-28.886,13.302-42.692c4.091-4.605,9.427-8.347,16.376-10.413
				c27.817-8.265,41.808,3.876,41.808,3.876s-3.875-6.569-6.569-9.098c-2.704-2.529-1.018-10.455,6.065-8.769
				c0.987,0.236,1.902,0.709,2.724,1.357c5.15,3.917,7.391,14.155,7.391,14.155s1.686-3.711,2.868-4.893
				c1.182-1.182,3.207-1.007,4.379,1.182c1.131,2.087-3.115,4.174-3.505,4.369c0.432-0.082,6.014-1.12,9.581,0.185
				c0.031,0.01,0.062,0.021,0.092,0.041c3.639,1.398,4.945,6.877,2.94,7.71c-1.963,0.822-10.424-0.267-10.938-0.329
				c0.349,0.288,5.983,4.945,9.252,12.295c3.372,7.587,5.397,25.124,11.462,30.86c4.585,4.318,9.93,6.538,12.572,11.925
				c0.853,1.758,1.429,3.845,1.593,6.445C472.931,134.786,472.695,136.349,472.232,137.696z"/>
			<path style="opacity:0.32;fill:#000C3B;" d="M461.86,145.693c0,0-0.843,11.462-9.108,13.652c-8.255,2.19-8.594-0.164-8.594-0.164
				s-2.704,4.883-10.454,6.24c-7.751,1.347-8.265-0.514-8.265-0.514l-19.892,4.215c0,0-4.05,2.704-9.272,2.025
				c-5.222-0.668-10.455-5.397-10.455-5.397s-0.257,0.175-0.771,0.411c-1.737,0.812-6.353,2.385-13.395,0.432
				c-9.098-2.529-9.437-7.072-9.437-7.072s-7.247,1.347-11.297-2.025c-2.416-2.025-4.482-4.955-4.945-8.347
				c-0.031-0.226-0.051-0.463-0.072-0.689c-0.154-2.087,0.308-4.328,1.645-6.641c3.711-6.415,3.875-17.712,3.875-27.488
				c0-7.329,1.049-28.886,13.302-42.692c4.091-4.605,9.427-8.347,16.376-10.413c27.817-8.265,41.808,3.875,41.808,3.875
				s-3.875-6.569-6.569-9.098c-2.704-2.529-1.018-10.455,6.065-8.769c0.987,0.236,1.902,0.709,2.724,1.357
				c-7.247,0.627-4.359,6.682-1.367,10.218c3.434,4.06,4.677,10.609,4.677,10.609s-26.347-11.853-45.838-1.717
				c-19.491,10.136-17.62,40.071-20.591,53.177c-0.853,3.762-1.943,7.319-2.981,10.599c-2.57,8.152-4.78,14.618-2.005,18.401
				c3.896,5.304,7.792-0.154,7.792-0.154s1.563,9.046,10.454,12.007c3.834,1.275,6.949,1.367,9.252,1.049h0.01
				c3.002-0.411,4.616-1.521,4.616-1.521s2.961,2.652,6.857,2.498c3.896-0.154,4.996-1.717,4.996-1.717s-10.763-0.154-19.336-5.14
				c-8.584-4.996-9.982-12.788-9.982-12.788s-5.767,1.398-9.046-1.563c-2.621-2.364-3.947-7.042-2.683-10.722
				c0.308-0.925,0.781-1.778,1.439-2.529c3.269-3.742,4.359-9.067,4.359-9.067l84.829-3.094c0,0,0.627-0.319-0.617,12.007
				c-1.254,12.315-10.455,21.043-10.455,21.043s-0.771,1.871,2.652,2.19c3.433,0.308,3.906-2.19,3.906-2.19s3.269,3.742,8.101,0.164
				c4.842-3.588,4.215-10.917,4.215-10.917s1.09,4.523,7.021-0.154c5.921-4.688,5.448-13.107,5.448-13.107s0.134-0.051,0.37-0.082
				c0.853,1.758,1.429,3.845,1.593,6.445C473.497,143.164,461.86,145.693,461.86,145.693z"/>
			<path style="fill:#E88C83;" d="M452.413,116.015c0,4.657-3.773,8.429-8.429,8.429c-0.267,0-0.524-0.031-0.792-0.051
				c0.411,8.008-0.72,18.822-8.46,24.795c-1.141,0.884-2.395,1.727-3.732,2.529c-14.186,8.522-38.118,11.811-51.07-0.668
				c-3.074-2.971-5.5-6.086-7.391-9.149c-1.388,1.007-3.084,1.604-4.924,1.604c-4.369,0-7.957-3.32-8.388-7.576
				c-0.031-0.288-0.041-0.576-0.041-0.864c0-4.245,3.146-7.741,7.227-8.327c-0.781-3.68-0.812-6.034-0.812-6.034
				s4.215,0.504,5.397-2.19c1.131-2.601,0.247-5.962,0.185-6.219c0.206,0.257,2.847,3.361,10.609-0.36
				c7.843-3.762,4.595-11.647,4.389-12.12c0.123,0.123,0.935,0.966,2.179,0.658c1.357-0.339,2.529-2.2,2.529-2.2
				s-0.504,11.133,8.769,9.447c9.272-1.686,7.422-16.016,7.422-16.016s1.347,10.28,11.298,9.941c9.344-0.308,9.016-7.33,8.943-8.172
				c0.021,0.154,0.072,0.545,0.154,1.12c0.483,3.146,2.066,11.832,5.736,17.681c4.554,7.247,8.594,2.025,8.594,2.025
				s0.062,0.236,0.154,0.668c0.01-0.709,0.01-1.141,0.01-1.141s0-2.22-0.401-5.89c0.761-0.226,1.573-0.35,2.416-0.35
				C448.64,107.586,452.413,111.359,452.413,116.015z"/>
			<path style="opacity:0.25;fill:#C73E5A;" d="M431.093,151.594c0,0-0.031,0.041-0.092,0.123
				c-14.186,8.522-38.118,11.811-51.07-0.668c-3.074-2.971-5.5-6.086-7.391-9.149c-1.388,1.007-3.084,1.604-4.924,1.604
				c-4.369,0-7.957-3.32-8.388-7.576c-0.031-0.288-0.041-0.576-0.041-0.864c0-4.245,3.146-7.741,7.227-8.327
				c-0.781-3.68-0.812-6.034-0.812-6.034s4.215,0.504,5.397-2.19c1.131-2.601,0.247-5.962,0.185-6.219
				c0.206,0.257,2.847,3.361,10.609-0.36c7.843-3.762,4.595-11.647,4.389-12.12c0.123,0.123,0.935,0.966,2.179,0.658
				c1.357-0.339,2.529-2.2,2.529-2.2s-0.504,11.133,8.769,9.447c9.272-1.686,7.422-16.016,7.422-16.016s1.347,10.28,11.298,9.941
				c9.344-0.308,9.016-7.33,8.943-8.172c0.021,0.154,0.072,0.545,0.154,1.12c-2.724,13.713-18.833,6.332-18.833,6.785
				c0,0.473-0.154,7.175-9.046,9.673c-5.592,1.573-8.162-1.933-9.293-4.739c-0.031,1.532-0.555,3.69-2.241,6.61
				c-4.06,7.021-11.698,2.652-11.698,2.652s0.154,1.244-1.244,5.14c-1.408,3.906-4.842,3.279-4.842,3.279s4.76,23.654,21.444,29.74
				C408.405,159.807,431.093,151.594,431.093,151.594z"/>
		</g>
		<g>
			<path style="fill:none;stroke:#000000;stroke-width:3;stroke-linecap:round;stroke-miterlimit:10;" d="M380.118,129.789
				c0,0-2.324-6.022,3.592-8.346c5.916-2.324,8.346,4.015,8.346,4.015"/>
			<path style="fill:none;stroke:#000000;stroke-width:3;stroke-linecap:round;stroke-miterlimit:10;" d="M416.671,120.387
				c0,0-1.796-7.184,4.014-8.769c5.81-1.585,7.923,5.599,7.923,5.599"/>
			<g>
				<path style="fill:#E04747;" d="M401.348,119.261c0.455,0.631,0.826,1.292,1.201,1.951c0.323,0.657,0.803,1.316,0.837,2.37
					c0.018,0.524-0.172,1.086-0.434,1.483c-0.255,0.413-0.541,0.723-0.777,1.005c-0.511,0.574-0.727,0.895-0.823,1.418
					c-0.185,1.018,0.253,2.237,1.214,2.712c0.99,0.484,2.524,0.395,3.632-0.682c-0.379,1.56-2.313,2.646-4.149,2.154
					c-0.944-0.223-1.741-0.945-2.21-1.768c-0.465-0.84-0.623-1.824-0.451-2.79c0.091-0.481,0.28-0.957,0.561-1.38
					c0.283-0.422,0.593-0.722,0.871-0.979c0.585-0.517,0.913-0.864,1.016-1.271c0.11-0.458-0.069-1.203-0.207-1.95
					C401.509,120.786,401.386,120.038,401.348,119.261z"/>
			</g>
			<path style="fill:#A12828;" d="M420.319,144.244c-1.573,2.508-4.472,4.708-9.56,5.51c-4.328,0.678-7.576-0.545-9.838-2.467
				c-3.721-3.125-4.811-8.09-3.69-9.468c0,0-0.185-0.555,0.771-1.1c0.288-0.175,0.689-0.339,1.234-0.483
				c2.333-0.637,13.631-2.436,15.327-2.745c0.822-0.154,2.354-0.493,3.814-0.38c1.511,0.113,2.93,0.709,3.361,2.488
				C422.211,137.531,422.293,141.119,420.319,144.244z"/>
			<path style="fill:#FFFFFF;" d="M417.091,137.819c-3.69,1.48-14.474,3.382-16.797,2.961c-1.593-0.288-2.138-2.56-2.292-4.061
				c0.288-0.175,0.689-0.339,1.234-0.483c2.333-0.637,13.631-2.436,15.327-2.745c0.822-0.154,2.354-0.493,3.814-0.38
				C418.973,134.807,419.209,136.966,417.091,137.819z"/>
			<path style="fill:#E8A0DA;" d="M420.319,144.244c-1.573,2.508-4.472,4.708-9.56,5.51c-4.328,0.678-7.576-0.545-9.838-2.467
				c1.264-1.922,4.071-5.058,9.201-5.561C414.861,141.263,418.376,142.938,420.319,144.244z"/>
			<path style="fill:none;stroke:#000000;stroke-width:3;stroke-linecap:round;stroke-miterlimit:10;" d="M376.491,117.532
				c0.524-1.978,2.477-3.329,4.49-3.695c2.013-0.366,4.082,0.08,6.049,0.645"/>
			<path style="fill:none;stroke:#000000;stroke-width:3;stroke-linecap:round;stroke-miterlimit:10;" d="M414.441,108.269
				c1.172-1.84,3.09-3.188,5.218-3.668c2.128-0.48,4.439-0.085,6.287,1.073"/>
		</g>
		<g>
			<path style="fill:#E88C83;" d="M397.056,170.303c0,0-0.524,1.83-1.285,4.595c-1.963,7.114-5.469,20.395-5.469,24.404
				c0,5.561-1.007,6.24-1.007,6.24l-17.609,12.634c0,0-9.797-2.005-14.351-6.394c-4.554-4.379-5.469-19.223-5.469-19.223
				s1.264-0.771,3.331-2.025c3.834-2.313,10.403-6.26,16.694-9.91c4.451-2.58,8.758-5.016,11.842-6.61
				c3.249-1.676,5.808-2.652,7.782-3.207C395.473,169.707,397.056,170.303,397.056,170.303z"/>
			<path style="opacity:0.25;fill:#C73E5A;" d="M395.771,174.898c-1.963,7.114-5.469,20.395-5.469,24.404
				c0,5.561-1.007,6.24-1.007,6.24l-17.609,12.634c0,0-9.797-2.005-14.351-6.394c-4.554-4.379-5.469-19.223-5.469-19.223
				s1.264-0.771,3.331-2.025c0.637,0.35,1.295,0.72,1.984,1.131c5.458,3.279,12.315,10.3,12.315,10.3s0.627-0.627,1.881-0.319
				c1.244,0.319,4.677,2.025,4.677,2.025l5.294-1.706c0,0-0.617-0.781-3.269-1.871c-2.652-1.1-1.563-4.688-1.563-4.688
				s-5.736-0.555-4.626-14.782c4.451-2.58,8.758-5.016,11.842-6.61c3.249-1.676,5.808-2.652,7.782-3.207
				c0.493,0.401,1.008,0.812,1.532,1.213C394.137,172.863,395.031,173.819,395.771,174.898z"/>
			<path style="fill:#E88C83;" d="M487.573,223.438c0,0-6.928-3.331-15.552-6.828c-8.614-3.486-19.244-5.274-19.244-5.274
				s-4.615-10.428-7.902-24.071c-3.277-13.633-7.391-17.433-7.391-17.433c2.139,0.173,4.207,0.448,6.204,0.807
				c21.672,3.821,35.084,17.271,35.084,17.271s-0.14,5.902,2.274,14.492c0.745,2.638,1.647,5.634,2.538,8.528
				C485.595,217.456,487.573,223.438,487.573,223.438z"/>
			<path style="opacity:0.25;fill:#C73E5A;" d="M487.573,223.438c0,0-6.928-3.331-15.552-6.828
				c-8.614-3.486-19.244-5.274-19.244-5.274s-4.615-10.428-7.902-24.071c-3.277-13.633-7.391-17.433-7.391-17.433
				c2.139,0.173,4.207,0.448,6.204,0.807c11.934,12.122,14.551,27.136,14.551,27.136s5.781,2.31,13.132,6.009
				c4.258,2.144,8.984,5.067,12.213,7.145C485.595,217.456,487.573,223.438,487.573,223.438z"/>
			<path style="fill:#E88C83;" d="M449.555,266.574c0,0-9.786,8.09-32.371,9.951c-22.595,1.85-36.421-7.422-36.421-7.422
				s1.347-2.868,3.546-5.058c2.19-2.19,5.561-12.809,6.23-15.512c0.586-2.333,13.693-4.677,22.667-5.253
				c1.388-0.093,2.673-0.144,3.803-0.144c3.074,0,7.484,0.802,11.842,1.83c7.638,1.789,15.132,4.245,15.132,4.245
				c0,0.668,0.031,1.336,0.082,1.984c0.452,5.644,2.704,10.547,4.184,13.22C449,265.793,449.555,266.574,449.555,266.574z"/>
			<path style="opacity:0.25;fill:#C73E5A;" d="M449.555,266.574c0,0-9.786,8.09-32.371,9.951
				c-22.595,1.85-36.421-7.422-36.421-7.422s1.347-2.868,3.546-5.058c2.19-2.19,5.561-12.809,6.23-15.512
				c0.586-2.333,13.693-4.677,22.667-5.253c3.557,0.298,6.959,0.648,11.493,1.408c1.367,0.226,2.765,0.308,4.153,0.278
				c7.638,1.789,15.132,4.245,15.132,4.245c0,0.668,0.031,1.336,0.082,1.984c-6.003,0.987-18.884,2.981-29.812,3.783
				c-14.217,1.049-14.505-0.925-14.505-1.079c-0.093,0.206-1.007,2.457-2.334,8.101c-1.408,5.921-5.304,7.011-5.304,7.484
				c0,0.463,7.792,5.613,21.516,4.523c13.723-1.09,26.82-4.369,31.97-7.648c1.018-0.648,1.892-1.316,2.652-1.943
				C449,265.793,449.555,266.574,449.555,266.574z"/>
			<path style="fill:#E88C83;" d="M427.46,171.32c0,0-2.19,7.59-11.8,7.07c-2.94-0.15-5.27-0.83-7.1-1.71
				c-4.16-2.02-5.71-5.03-5.71-5.03s0.72-1.44,1.28-4.27c0.25-1.27,0.47-2.83,0.57-4.66c0.08-1.28,0.1-2.44,0.1-3.46
				c7.89-0.24,15.89-2.35,22.48-5.55c-0.1,0.96-0.21,2.1-0.31,3.34c-0.15,1.86-0.3,3.96-0.35,6.01c-0.04,1.6,0,2.94,0.07,4.03
				C426.92,170.13,427.46,171.32,427.46,171.32z"/>
			<path style="fill:#59DEAB;" d="M452.207,214.352c-0.298,4.163-1.223,7.936-2.478,11.493c-0.792,2.241-1.717,4.4-2.704,6.507
				c-0.165,0.35-0.319,0.699-0.463,1.059c-0.761,1.922-1.213,3.917-1.449,5.839c-0.74,5.767,0.391,10.804,0.391,10.804
				s-15.009,3.536-29.503,3.197c-5.613-0.123-10.876-0.709-15.214-1.378c-6.867-1.059-11.421-2.323-11.421-2.323
				s2.19-3.536,2.714-9.077c0.144-1.501,0.164-3.156-0.021-4.924v-0.031c-0.36-3.423-1.583-5.633-2.981-7.926
				c-1.696-2.776-3.629-5.685-4.574-11.041c-0.154-0.853-0.277-1.758-0.37-2.745c-0.504-5.284-0.236-8.984,0.432-12.264
				c0.812-3.917,2.2-7.216,3.516-11.904c0.154-0.524,0.298-1.069,0.442-1.634c0.658-2.529,1.182-4.903,1.645-7.052
				c0.709-3.413,1.234-6.25,1.758-8.214c0.411-1.583,0.812-2.611,1.316-2.94c0.905-0.607,2.776-0.668,4.143-0.617
				c0.905,0.031,1.583,0.113,1.583,0.113s0.535,0.02,1.47,0.041c6.507,0.185,32.423,0.905,33.605,0.463
				c0.833-0.309,2.364-0.432,3.423-0.473c0.658-0.031,1.131-0.031,1.131-0.031s0.668,1.388,1.706,3.66
				c1.038,2.282,2.457,5.469,3.937,9.026c1.254,2.981,2.549,6.219,3.711,9.406c1.439,3.886,2.673,7.7,3.382,10.886
				c0.165,0.73,0.308,1.429,0.411,2.087C452.32,207.948,452.444,211.258,452.207,214.352z"/>
			<g>
				<path style="fill:#30B0C7;" d="M419.199,185.209c-13.662-0.709-23.746-2.868-29.03-4.256c0.709-3.413,1.234-6.25,1.758-8.214
					c3.845,1.686,10.126,3.485,19.963,3.485c11.287,0,21.721-1.789,28.413-3.269c1.038,2.282,2.457,5.469,3.937,9.026
					C438.844,183.873,430.404,185.785,419.199,185.209z"/>
				<path style="fill:#30B0C7;" d="M384.566,201.544c0.812-3.917,2.2-7.216,3.516-11.904c5.274,2.745,16.109,7.319,29.287,6.99
					c11.966-0.288,23.674-3.187,30.582-5.243c1.439,3.886,2.673,7.7,3.382,10.886c-6.384,2.817-17.393,6.425-32.289,6.702
					C401.559,209.295,389.881,204.422,384.566,201.544z"/>
				<path style="fill:#30B0C7;" d="M452.207,214.352c-0.298,4.163-1.223,7.936-2.478,11.493c-4.338,1.84-14.865,5.592-29.925,6.281
					c-13.919,0.637-25.144-2.529-30.726-4.533c-1.696-2.776-3.629-5.685-4.574-11.041c6.579,2.066,21.207,6.045,34.386,5.366
					C433.693,221.158,447.972,216.007,452.207,214.352z"/>
				<path style="fill:#30B0C7;" d="M446.564,233.411c-0.761,1.922-1.213,3.917-1.449,5.839c-4.729,1.285-13.785,3.187-26.368,3.392
					c-12.284,0.195-21.567-1.162-26.666-2.169c0.144-1.501,0.164-3.156-0.021-4.924v-0.031c5.716,1.213,16.664,3.074,27.899,2.549
					C431.966,237.502,442.071,234.799,446.564,233.411z"/>
			</g>
			<path style="opacity:0.28;fill:#0B3861;" d="M401.785,224.262c3.434,5.644,0.812,19.84-0.997,27.612
				c-6.867-1.059-11.421-2.323-11.421-2.323s2.19-3.536,2.714-9.077c0.144-1.501,0.164-3.156-0.021-4.924v-0.031
				c-0.36-3.423-1.583-5.633-2.981-7.926c-1.696-2.776-3.629-5.685-4.574-11.041c-0.154-0.853-0.277-1.758-0.37-2.745
				c-0.504-5.284-0.236-8.984,0.432-12.264c0.812-3.917,2.2-7.216,3.516-11.904c0.154-0.524,0.298-1.069,0.442-1.634
				c0.658-2.529,1.182-4.903,1.645-7.052c0.709-3.413,1.234-6.25,1.758-8.214c0.411-1.583,0.812-2.611,1.316-2.94
				c0.905-0.607,2.776-0.668,4.143-0.617c-1.501,0.617-3.146,2.005-4.03,5.017c-1.871,6.394-1.244,17.784-0.771,28.074
				C393.047,212.564,396.943,216.305,401.785,224.262z"/>
			<path style="opacity:0.28;fill:#0B3861;" d="M439.512,198.686c-8.419,7.021-33.05,6.086-37.418-3.279
				c-3.896-8.337-2.087-22.975-1.655-26.07c6.507,0.185,32.423,0.905,33.605,0.463c0.833-0.309,2.364-0.432,3.423-0.473
				C446.625,183.996,447.633,191.922,439.512,198.686z"/>
			<path style="fill:#E88C83;" d="M437.754,190.369c-0.062,0.165-0.134,0.329-0.216,0.493c-3.588,7.628-21.423,8.234-32.155,6.25
				c-10.958-2.025-11.133-8.09-10.455-13.487c0.668-5.397,4.04-14.33,4.04-14.33s2.498-1.018,5.161-1.912
				c1.922-0.637,3.927-1.213,5.13-1.295c0.576-0.031,1.121-0.041,1.614-0.02c1.984,0.041,3.269,0.36,3.269,0.36
				c5.058-0.432,9.262-0.031,12.552,0.658c5.705,1.182,8.697,3.218,8.697,3.218S440.786,182.279,437.754,190.369z"/>
			<path style="opacity:0.25;fill:#C73E5A;" d="M437.54,190.86c-3.59,7.63-21.43,8.24-32.16,6.25
				c-10.96-2.02-11.13-8.09-10.45-13.48c0.67-5.4,4.04-14.33,4.04-14.33s2.5-1.02,5.16-1.92c0.25-1.27,0.47-2.83,0.57-4.66
				c0.08-1.28,0.1-2.44,0.1-3.46c7.89-0.24,15.89-2.35,22.48-5.55c-0.1,0.96-0.21,2.1-0.31,3.34c-7.63,8.78-15.52,6.4-15.52,6.4
				s-0.32,1.05-0.58,2.62c-0.19,1.15-0.36,2.57-0.36,4.08c0,3.59,6.4,4.52,6.4,4.52s-4.96,2.34-8.35,2.01
				c-0.82-0.08-1.55-0.31-2.1-0.76c-2.8-2.34-3.12-3.27-4.06,0.93c-0.93,4.22-2.33,6.55-0.78,10.76c1.56,4.22,3.74,5.93,14.04,7.33
				C423.49,196,433.28,192.57,437.54,190.86z"/>
			<path style="fill:#802E25;" d="M416.338,260.673c0,1.769-0.981,3.203-2.192,3.203c-1.21,0-2.192-1.434-2.192-3.203
				c0-1.769,0.981-3.203,2.192-3.203C415.356,257.47,416.338,258.904,416.338,260.673z"/>
			<g>
				<path style="fill:#F1BDB4;" d="M399.688,174.374c0,0-1.819,3.372-2.426,5.962s0.607,7.463-0.607,8.985
					c-1.223,1.521-2.59,1.83-3.814-0.607c-1.213-2.436-1.676-9.601-1.676-9.601s-1.367,4.112-1.676,8.378
					c-0.164,2.375,0.658,5.13,1.213,7.36c0.432,1.789,0.699,3.238,0.164,3.917c-1.223,1.521-4.122-2.436-4.122-2.436
					s-0.452,1.367-2.128,1.367s-2.128-1.984-2.128-1.984s-0.771,1.532-2.447,0.771c-1.676-0.771-1.974-3.351-1.974-3.351
					s-0.761,1.367-1.83,0.298c-1.069-1.069-1.984-4.266-1.984-7.155c0-2.899,2.899-10.208,4.112-13.261
					c1.223-3.043,2.128-5.15,2.128-5.15s1.552-1.264,3.886-2.221c0,0,0-0.01,0.01,0c2.786-1.141,6.702-1.819,10.434,0.668
					C401.682,170.889,399.688,174.374,399.688,174.374z"/>
				<path style="opacity:0.25;fill:#C73E5A;" d="M390.868,198.768c-1.223,1.521-4.122-2.436-4.122-2.436s-0.452,1.367-2.128,1.367
					s-2.128-1.984-2.128-1.984s-0.771,1.532-2.447,0.771c-1.676-0.771-1.974-3.351-1.974-3.351s-0.761,1.367-1.83,0.298
					c-1.069-1.069-1.984-4.266-1.984-7.155c0-2.899,2.899-10.208,4.112-13.261c1.223-3.043,2.128-5.15,2.128-5.15
					s1.552-1.264,3.886-2.221c-5.644,5.171-7.155,15.183-8.409,19.254c-1.501,4.862,1.038,7.175,1.388,7.175
					c0.349,0,0.113,0.812,0.349-4.05c0.226-4.852,1.501-6.939,1.501-6.939s-1.151,7.402-0.463,10.413
					c0.699,3.002,3.125,3.002,3.125,3.002s-0.463-1.963-0.113-6.589c0.349-4.626,1.151-6.826,1.151-6.826s-0.689,10.064,0.35,12.377
					c1.038,2.313,2.662,1.275,2.662,1.275s-0.699-3.701-0.812-7.062c-0.113-3.351,0.925-5.89,0.925-5.89s0.113,9.941,1.388,12.14
					c0.709,1.234,2.148,1.193,3.279,0.925C391.135,196.64,391.402,198.089,390.868,198.768z"/>
			</g>
		</g>
	</g>
	<g>
		<g>
			<path style="fill:#532859;" d="M353.254,126.922c0,0,3.773,8.738-3.249,14.556c-7.031,5.829-10.629,6.518-10.629,6.518
				l-25.751,4.204l-24.62,4.019c0,0,0.175,6.507-6.332,8.049c-6.517,1.542-7.885-1.367-12.336-7.885
				c-4.461-6.507-9.941-3.598-19.881-15.245c-9.93-11.647,1.542-21.248,1.542-21.248s-11.133-4.79-8.388-18.154
				c2.734-13.364,17.815-15.594,17.815-15.594s-1.028-9.252,12.336-17.301c13.364-8.059,24.672-0.35,24.672-0.35
				s6.343-19.532,22.276-14.042c15.934,5.479,16.098,16.448,16.098,16.448s12.171-3.773,18.339,7.874
				c1.244,2.344,1.861,4.626,2.077,6.764c0.802,8.491-4.996,14.824-4.996,14.824s6.003,5.654,5.654,13.539
				C357.54,121.782,353.254,126.922,353.254,126.922z"/>
			<path style="opacity:0.36;fill:#C093C7;" d="M347.153,84.022c4.298,4.155-2.579,15.904-2.579,15.904s4.728,6.018,6.018,13.038
				c1.289,7.021-1.576,13.038,0.716,13.325c2.292,0.287,4.871-15.904,3.295-20.059c-1.576-4.155-4.728-7.737-4.728-7.737
				s3.152,0.143,3.296-7.164C353.314,84.022,347.153,84.022,347.153,84.022z"/>
			<path style="opacity:0.31;fill:#2E0F33;" d="M357.222,85.536c-8.214-13.004-25.751-6.846-25.751-6.846s1.737-10.897-9.447-16.273
				c-11.184-5.376-17.435,13.22-17.722,13.662c-0.298,0.432-15.255-9.159-25.864-1.018c-10.609,8.131-6.106,16.417-6.538,16.417
				c-0.442,0-8.861,1.604-13.518,9.005c-4.646,7.412,5.818,15.111,5.818,15.111s-5.52,1.748-6.394,7.556
				c-0.874,5.818,4.215,6.394,4.215,6.394s-1.46-2.467,3.629-4.79c5.089-2.323,8.142,0.288,13.518,2.611
				c5.376,2.323,7.401,0.288,5.808-4.79c-1.604-5.089-3.783-4.801-2.323-13.22c1.45-8.429,10.167-3.053,16.273-4.657
				c5.685-1.491,7.083-9.941,7.247-11.061c-0.103,1.203-0.709,11.143,5.973,16.725c4.194,3.516,3.094,24.877,1.48,41.839
				l-24.62,4.019c0,0,0.175,6.507-6.332,8.049c-6.517,1.542-7.885-1.367-12.336-7.885c-4.461-6.507-9.941-3.598-19.881-15.245
				c-9.93-11.647,1.542-21.248,1.542-21.248s-11.133-4.79-8.388-18.154c2.734-13.364,17.815-15.594,17.815-15.594
				s-1.028-9.252,12.336-17.301c13.364-8.059,24.672-0.35,24.672-0.35s6.343-19.532,22.276-14.042
				c15.934,5.479,16.098,16.448,16.098,16.448s12.171-3.773,18.339,7.874C356.389,81.115,357.006,83.397,357.222,85.536z"/>
			<path style="fill:#F1BDB4;" d="M346.891,119.696c-0.072,8.162-0.822,20.447-4.256,28.814
				c-5.469,13.333-17.753,23.757-40.256,18.709c-0.062-0.01-0.113-0.031-0.175-0.041c-22.616-5.14-26.563-21.588-26.563-21.588
				s-0.514,1.203-4.626,1.717c-4.112,0.514-11.472-3.259-7.71-11.647c3.773-8.399,10.969-2.056,10.969-2.056
				s6.168,3.423,11.308-0.863c5.14-4.276-0.175-11.133-1.367-16.273c-1.203-5.14,4.277-9.766,9.591-7.535
				c5.315,2.22,10.619-2.92,12.161-5.14c1.542-2.231,1.717-4.112,1.717-4.112s1.408,3.742,5.674,6.641
				c2.57,1.737,6.168,3.156,11.113,3.289c13.199,0.35,14.227-5.14,14.227-5.14s1.881,2.92,4.626,5.14
				c2.734,2.231,3.423,1.542,3.423,1.542C346.747,111.41,346.942,114.823,346.891,119.696z"/>
			<path style="opacity:0.23;fill:#F16C90;" d="M346.891,119.696c-6.651-1.223-9.57-7.679-9.57-7.679s0,5.479-10.958,5.14
				c-8.08-0.257-12.624-4.04-14.464-6.014c-0.206,0.822-2.097,1.994-9.18,3.269c-13.364,2.395-5.829,4.801-5.489,18.164
				c0.349,13.364-13.014,7.535-13.014,7.535s0,17.815,14.392,25.36c1.275,0.668,2.539,1.244,3.773,1.747
				c-0.062-0.01-0.113-0.031-0.175-0.041c-22.616-5.14-26.563-21.588-26.563-21.588s-0.514,1.203-4.626,1.717
				c-4.112,0.514-11.472-3.259-7.71-11.647c3.773-8.399,10.969-2.056,10.969-2.056s6.168,3.423,11.308-0.863
				c5.14-4.276-0.175-11.133-1.367-16.273c-1.203-5.14,4.277-9.766,9.591-7.535c5.315,2.22,10.619-2.92,12.161-5.14
				c1.542-2.231,1.717-4.112,1.717-4.112s1.408,3.742,5.674,6.641c2.57,1.737,6.168,3.156,11.113,3.289
				c13.199,0.35,14.227-5.14,14.227-5.14s1.881,2.92,4.626,5.14c2.734,2.231,3.423,1.542,3.423,1.542
				C346.747,111.41,346.942,114.823,346.891,119.696z"/>
		</g>
		<g>
			<path style="fill:#48458D;" d="M274.959,453.303c0,0-7.539,12.336-5.825,16.79c1.713,4.455,6.511,4.797,10.28,6.168
				c3.769,1.371,14.392,1.713,17.818,1.028s3.769-3.769,3.084-6.511c-0.685-2.741-4.797-2.399-8.224-4.797
				c-3.427-2.399-2.056-7.539-2.056-7.539L274.959,453.303z"/>
			<path style="fill:#48458D;" d="M331.841,454.331c0,0-3.769,12.336-1.713,15.762c2.056,3.427,8.909,2.741,12.678,4.455
				c3.769,1.713,3.427,3.084,10.28,3.084c6.853,0,7.881,0,7.881-2.741s-1.713-6.511-7.539-8.566
				c-5.825-2.056-6.168-7.881-6.168-7.881l-14.049-4.112"/>
			<path style="fill:#E66D4C;" d="M353.336,458.765c-1.213,2.889-1.964,4.472-1.964,4.472s-7.196,1.378-15.08-1.028
				c-7.134-2.169-8.368-4.061-8.543-4.4c-0.01-0.031-0.021-0.051-0.021-0.051s5.14-14.392,5.829-43.514
				c0.678-29.133-5.829-58.595-5.829-58.595s-1.367,11.308-8.912,44.882c-6.137,27.355-17.054,53.579-20.889,62.358
				c-0.874,1.994-1.378,3.094-1.378,3.094s-5.931,0-12.202-1.799c-0.956-0.267-1.922-0.586-2.878-0.946
				c-0.668-0.257-1.295-0.524-1.881-0.822c-5.859-2.878-8.399-7.401-8.399-7.401s13.364-26.039,16.448-63.046
				c3.084-37.007-1.367-92.858-1.367-92.858l11.02-2.087l1.881-0.35l55.974-10.588c0,0,0.915,2.2,2.313,6.229
				c4.276,12.336,13.096,41.818,14.135,77.726C372.703,408.785,358.63,446.173,353.336,458.765z"/>
			<path style="opacity:0.42;fill:#801111;" d="M297.578,411.838c-10.969,35.64-17.137,44.203-17.137,44.203
				s9.231,6.456,17.486,6.846c-0.874,1.994-1.378,3.094-1.378,3.094s-7.885,0-15.081-2.745c-7.196-2.734-10.28-8.224-10.28-8.224
				s13.364-26.039,16.448-63.046c3.084-37.007-1.367-92.858-1.367-92.858l68.875-13.025c0,0,0.915,2.2,2.313,6.229
				c-20.621,13.682-54.062,16.489-54.062,17.414C303.397,310.756,308.536,376.208,297.578,411.838z"/>
			<path style="fill:#FFB6A3;" d="M284.348,464.183c-0.956-0.267-1.922-0.586-2.878-0.946c-0.668-0.257-1.295-0.524-1.881-0.822
				c2.601-6.014,14.299-34.294,17.64-62.563c3.29-27.776,0.586-87.317,0.062-102.829c-0.072-2.282-0.103-3.608-0.062-3.742
				l2.056-6.507c0,0-0.154,3.053-0.113,9.9c0.041,10.629,0.565,30.387,2.858,62.059C305.37,404.776,288.337,453.512,284.348,464.183
				z"/>
			<path style="fill:#FFB6A3;" d="M331.498,290.539c-0.685,1.028,2.056,29.126,2.056,29.126l5.825-2.399l-1.371-27.07
				L331.498,290.539z"/>
			<path style="opacity:0.42;fill:#801111;" d="M353.336,458.765c-1.213,2.889-1.964,4.472-1.964,4.472s-7.196,1.378-15.08-1.028
				c-7.134-2.169-8.368-4.061-8.543-4.4c-0.01-0.031-0.021-0.051-0.021-0.051s5.14-14.392,5.829-43.514
				c0.678-29.133-5.829-58.595-5.829-58.595s2.395-11.997,1.717-18.853c-0.689-6.846,0.678-13.703,4.112-13.364
				c3.423,0.35,14.392-1.028,14.392-1.028s-11.308,8.224-12.685,17.137c-1.367,8.913,0.689,12.336,0.689,12.336
				s5.14,10.28,9.591,44.543c4.461,34.273-5.479,58.944-5.479,58.944S343.879,458.323,353.336,458.765z"/>
		</g>
		<g>
			<path style="fill:#F1BDB4;" d="M391.125,247.361c0,0-16.797-1.542-31.868-7.874c-15.08-6.343,9.077-30.161,9.077-30.161
				s5.274,4.071,9.314,6.97c1.645,1.192,3.084,2.19,3.875,2.632c2.745,1.542,5.14,2.056,5.14,2.056s0.349,3.937,2.745,7.196
				c1.984,2.693,3.033,6.815,3.434,9.992c0.082,0.658,0.134,1.275,0.164,1.83C393.181,243.249,391.125,247.361,391.125,247.361z"/>
			<path style="opacity:0.23;fill:#F16C90;" d="M391.125,247.361c0,0-16.797-1.542-31.868-7.874
				c-15.08-6.343,9.077-30.161,9.077-30.161s5.274,4.071,9.314,6.97c-0.062,10.362-2.704,14.834-2.971,15.646
				c-0.349,1.028,5.479,5.489,17.126,6.168c0.349,0.021,0.699,0.041,1.038,0.062c0.082,0.658,0.134,1.275,0.164,1.83
				C393.181,243.249,391.125,247.361,391.125,247.361z"/>
			<path style="fill:#A8A7C9;" d="M369.191,205.56c0,0,0.514-1.199,2.399-0.685c1.885,0.514,4.112,2.57,5.14,4.112
				c1.028,1.542,0,11.308-7.71,22.958c-7.71,11.65-14.563,12.336-16.619,11.822c-2.056-0.514-5.311-6.168-4.969-6.682
				c0.343-0.514,1.028-1.713,1.028-1.713L369.191,205.56z"/>
			<path style="fill:#8583C9;" d="M363.883,225.609c-0.596,0.925-1.193,1.768-1.799,2.549c-5.685,7.381-11.565,8.923-11.565,8.923
				l-8.059-6.332c0,0-3.248-31.354-7.196-38.385c-3.249-5.787-5.438-9.242-6.117-10.28c-0.144-0.226-0.216-0.339-0.216-0.339h0.267
				c1.347,0.021,7.772,0.473,18.062,6.682c11.647,7.021,21.927,17.137,21.927,17.137S370.051,216.007,363.883,225.609z"/>
			<path style="fill:#48458D;" d="M364.048,285.571c0,0-5.705,3.495-15.502,7.299c-6.569,2.549-14.988,5.232-24.754,7.093
				c-6.62,1.264-12.572,1.953-17.723,2.272c-13.785,0.905-21.855-0.73-21.855-0.73s-13.713-34.777-18.339-65.452
				c-4.626-30.665,1.203-50.71,1.203-50.71s13.025-4.801,20.22-4.965c7.196-0.175,27.241-2.57,27.241-2.57s6.075,0.864,11.863,2.817
				c1.922,0.658,3.814,1.429,5.438,2.323c6.507,3.598,9.077,15.07,9.766,24.158c0.689,9.077,0,34.088,6.343,49.168
				C354.282,271.354,364.048,285.571,364.048,285.571z"/>
			<path style="opacity:0.44;fill:#17154F;" d="M326.403,180.624c0.031,17.825-6.672,18.771-9.293,18.771
				c-2.745,0-3.434-3.084-3.434-3.084s0.35,3.762-3.762,3.762s-5.829,0.689-13.364-3.084c-7.309-3.649-11.719-7.617-11.986-7.864
				c0.175,0.524,5.839,17.321,7.186,30.14c1.367,13.024-7.196,16.448-7.196,16.448s4.112,28.783,10.28,46.598
				c3.135,9.067,7.607,15.646,11.236,19.922c-13.785,0.905-21.855-0.73-21.855-0.73s-13.713-34.777-18.339-65.452
				c-4.626-30.665,1.203-50.71,1.203-50.71s13.025-4.801,20.22-4.965c7.196-0.175,27.241-2.57,27.241-2.57
				S320.615,178.671,326.403,180.624z"/>
			<path style="fill:#F1BDB4;" d="M315.568,185.682c0,0-0.905,3.3-4.533,4.143c-0.771-1.007-1.316-1.778-1.398-1.881l-0.74,1.912
				c-2.796-0.627-7.391-3.372-11.143-5.839c-3.444-2.272-6.178-4.328-6.178-4.328s0.134-0.709,0.277-1.984
				c0.195-1.655,0.411-4.246,0.411-7.443c0-2.673-0.113-4.965-0.236-6.641c2.878,1.429,6.25,2.662,10.177,3.557
				c4.328,0.987,8.275,1.398,11.873,1.316c-0.062,0.915-0.103,1.984-0.134,3.135c-0.031,1.501-0.021,3.156,0.082,4.801
				c0.031,0.432,0.062,0.843,0.093,1.244C314.54,182.608,315.568,185.682,315.568,185.682z"/>
			<path style="opacity:0.23;fill:#F16C90;" d="M313.944,171.629c-11.966-0.154-17.743-3.762-17.743-3.762l1.552,16.15
				c-3.444-2.272-6.178-4.328-6.178-4.328s0.689-3.773,0.689-9.427c0-2.673-0.113-4.965-0.236-6.641
				c2.878,1.429,6.25,2.662,10.177,3.557c4.328,0.987,8.275,1.398,11.873,1.316C314.016,169.409,313.974,170.478,313.944,171.629z"
				/>
			<path style="fill:#8583C9;" d="M309.637,187.933c0,0,0,0,0,0.01l-0.74,1.912l-2.961,7.669c0,0-3.341-1.028-9.858-3.423
				c-6.517-2.406-13.384-9.252-13.384-9.252s1.234-2.745,3.166-4.626c1.943-1.892,5.818-2.745,5.818-2.745s0.051,0.082,0.175,0.226
				c0.555,0.75,2.642,3.269,6.332,5.428C302.595,185.702,309.637,187.933,309.637,187.933z"/>
			<path style="fill:#8583C9;" d="M321.962,188.612c-0.709,2.745-3.177,6.682-5.284,6.517c-1.398-0.113-4.019-3.217-5.644-5.304
				c-0.771-1.007-1.316-1.778-1.398-1.881c0-0.01,0-0.01,0-0.01s1.758-1.028,3.341-4.112c1.583-3.084,1.059-6.168,1.059-6.168
				s0.031,0.01,0.082,0.021c0.72,0.236,5.993,1.964,7.309,3.403C322.836,182.618,322.661,185.877,321.962,188.612z"/>
			<path style="fill:#8583C9;" d="M272.732,227.829c-2.457,7.247-9.509,17.219-12.809,21.68c-1.079,1.449-1.758,2.313-1.758,2.313
				s-11.822-2.056-19.018-15.594c-0.853-1.604-1.593-3.074-2.241-4.42c-4.801-9.992-4.266-13.055-4.266-13.055
				s0.504-0.565,1.388-1.552c4.523-5.068,18.884-21.094,23.623-25.689c5.654-5.479,9.427-6.168,9.427-6.168
				c0.524,0.391,3.475,2.005,5.674,6.61c0.658,1.388,1.254,3.053,1.696,5.037C276.33,205.563,275.991,218.238,272.732,227.829z"/>
			<path style="fill:#A8A7C9;" d="M260.396,249.592l-4.801,6.168c0,0-11.277-2.734-20.179-13.662
				c-0.01-0.01-0.021-0.031-0.031-0.041c-8.913-10.969-8.224-21.588-8.224-21.588l6.846-3.434c0,0,0.01,0.051,0.02,0.165
				c0.123,0.956,0.874,5.983,4.081,12.274c1.388,2.714,3.228,5.674,5.664,8.635c7.473,9.098,14.33,11.03,16.15,11.4
				C260.232,249.571,260.396,249.592,260.396,249.592z"/>
			<path style="opacity:0.36;fill:#36177D;" d="M272.753,191.952c-0.123,0.165-0.195,0.247-0.195,0.247
				c-2.498-2.817-29.308,30.685-34.448,37.275c-0.493,0.627-0.781,1.007-0.843,1.1c-0.103,0.144-0.226,0.586-0.36,1.234
				c-0.452,2.21-1.059,6.795-1.491,10.29c-0.01-0.01-0.021-0.031-0.031-0.041c-8.913-10.969-8.224-21.588-8.224-21.588l6.846-3.434
				c0,0,0.01,0.051,0.02,0.165c4.523-5.068,18.884-21.094,23.623-25.689c5.654-5.479,9.427-6.168,9.427-6.168
				C267.602,185.733,270.553,187.347,272.753,191.952z"/>
			<path style="fill:#F1BDB4;" d="M248.917,252.504c-0.171,0.514-15.591,14.22-15.591,14.22s-4.969-9.766-5.14-20.046
				c-0.171-10.28,1.542-13.706,1.542-13.706s4.112,8.053,9.766,13.535C245.148,251.99,248.917,252.504,248.917,252.504z"/>
			<path style="opacity:0.36;fill:#D2D1FC;" d="M352.4,288.141c3.084-3.423,5.829-7.535-2.056-16.109
				c-7.885-8.563-16.109-23.983-14.731-45.57c1.306-20.693,1.994-39.495-7.864-45.17c-0.432-0.247-0.874-0.473-1.347-0.668
				c1.922,0.658,3.814,1.429,5.438,2.323c6.507,3.598,9.077,15.07,9.766,24.158c0.689,9.077,0,34.088,6.343,49.168
				c6.332,15.081,16.098,29.297,16.098,29.297s-5.705,3.495-15.502,7.299C349.635,291.42,351.023,289.672,352.4,288.141z"/>
			<path style="opacity:0.36;fill:#36177D;" d="M329.199,181.745c0,0.021,0,0.041-0.01,0.072c-0.082-0.021-0.164-0.051-0.247-0.072
				h-0.01l0.514-1.542C329.446,180.203,329.353,180.758,329.199,181.745z"/>
			<path style="opacity:0.36;fill:#36177D;" d="M362.084,228.158c-5.685,7.381-11.565,8.923-11.565,8.923l-8.059-6.332
				c0,0-3.248-31.354-7.196-38.385c-3.249-5.787-5.438-9.242-6.117-10.28c0.021-0.092,0.031-0.185,0.041-0.267
				c19.747,5.376,15.019,21.063,21.845,34.705C354.23,222.915,358.466,226.339,362.084,228.158z"/>
		</g>
		<g>
			<path style="fill:#250929;" d="M307.636,131.086c0,2.465-1.036,4.463-2.314,4.463s-2.314-1.998-2.314-4.463
				c0-2.465,1.036-4.463,2.314-4.463S307.636,128.621,307.636,131.086z"/>
			<path style="fill:#250929;" d="M341.194,131.086c0,2.465-1.036,4.463-2.314,4.463c-1.278,0-2.314-1.998-2.314-4.463
				c0-2.465,1.036-4.463,2.314-4.463C340.158,126.622,341.194,128.621,341.194,131.086z"/>
			<g>
				<path style="fill:#E04747;" d="M327.869,131.456c-0.169,0.64,0.081,1.177,0.419,1.543c0.322,0.357,0.797,0.571,1.308,0.759
					c0.515,0.189,1.107,0.34,1.754,0.617c0.63,0.262,1.367,0.735,1.84,1.44c0.937,1.357,0.925,3.266-0.128,4.529
					c-1.019,1.224-2.783,1.546-3.927,0.84c1.292-0.146,2.24-0.897,2.632-1.733c0.387-0.803,0.245-1.816-0.226-2.505
					c-0.392-0.676-1.474-1.049-2.675-1.801c-0.581-0.384-1.165-0.936-1.44-1.686C327.178,132.749,327.298,131.854,327.869,131.456z"
					/>
			</g>
			<path style="fill:none;stroke:#000000;stroke-width:3;stroke-linecap:round;stroke-miterlimit:10;" d="M300.153,120.449
				c1.001-1.881,3.356-2.491,5.487-2.466c2.849,0.035,4.026,1.363,5.784,2.567"/>
			<path style="fill:none;stroke:#000000;stroke-width:3;stroke-linecap:round;stroke-miterlimit:10;" d="M335.399,120.846
				c1.247-1.394,3.269-2.045,5.095-1.641c1.826,0.405,3.384,1.849,3.925,3.64"/>
			<path style="fill:#A12828;" d="M330.453,154.164c-0.997,0.905-2.21,1.573-3.331,1.892c-2.714,0.761-5.15,0.966-8.419-1.604
				c-0.565-0.442-0.997-0.946-1.326-1.48c-1.388-2.231-0.925-4.975-0.051-5.932c0.123-0.154,0.267-0.257,0.411-0.308
				c1.316-0.483,3.536,0.771,9.108,0.555c2.868-0.103,4.513-0.74,5.304,0.565c0.216,0.339,0.36,0.812,0.463,1.46
				C332.9,151.152,331.892,152.889,330.453,154.164z"/>
			<path style="fill:#FFFFFF;" d="M332.149,147.852c-0.298,0.586-0.956,1.316-2.385,1.593c-2.508,0.483-8.203,0.483-10.711-0.411
				c-1.244-0.452-1.645-1.285-1.727-1.994c0.123-0.154,0.267-0.257,0.411-0.308c1.316-0.483,3.536,0.771,9.108,0.555
				C329.713,147.184,331.358,146.546,332.149,147.852z"/>
			<path style="fill:#E8A0DA;" d="M330.453,154.164c-0.997,0.905-2.21,1.573-3.331,1.892c-2.714,0.761-5.15,0.966-8.419-1.604
				c-0.565-0.442-0.997-0.946-1.326-1.48c0.792-0.452,3.331-1.655,7.586-1.367C327.626,151.779,329.374,153.002,330.453,154.164z"/>
		</g>
	</g>
</g>
</svg>
